<svg version="1.1" xmlns="http://www.w3.org/2000/svg" xmlns:xlink="http://www.w3.org/1999/xlink" x="0px" y="0px" width="600px" height="600px" viewBox="0 0 600 600" enable-background="new 0 0 600 600" xml:space="preserve">
<path fill-rule="evenodd" clip-rule="evenodd" d="M300.591,0.33C134.938,0.33,0.605,138.042,0.605,307.942
	c0,135.896,85.952,251.186,205.177,291.865c15,2.802,20.477-6.676,20.477-14.827c0-7.301-0.261-26.664-0.405-52.332
	c-83.452,18.587-101.06-41.233-101.06-41.233c-13.642-35.516-33.309-44.995-33.309-44.995c-27.239-19.067,2.06-18.698,2.06-18.698
	c30.107,2.177,45.952,31.719,45.952,31.719c26.762,46.984,70.215,33.412,87.31,25.558c2.725-19.879,10.476-33.451,19.046-41.122
	C179.235,436.094,109.2,409.725,109.2,291.844c0-33.58,11.691-61.038,30.881-82.539c-3.084-7.782-13.381-39.056,2.94-81.405
	c0,0,25.189-8.271,82.499,31.533c23.93-6.823,49.595-10.235,75.107-10.354c25.485,0.12,51.132,3.531,75.106,10.354
	C433.018,119.63,458.16,127.9,458.16,127.9c16.368,42.349,6.062,73.623,2.986,81.405c19.208,21.501,30.827,48.959,30.827,82.539
	c0,118.174-70.144,144.175-136.977,151.774c10.773,9.515,20.359,28.287,20.359,56.98c0,41.122-0.359,74.277-0.359,84.382
	c0,8.225,5.395,17.777,20.629,14.789c119.117-40.752,204.979-155.968,204.979-291.827C600.605,138.042,466.289,0.33,300.591,0.33z"
	/>
</svg>
