<svg role="img" xmlns="http://www.w3.org/2000/svg" viewBox="0 0 600 600">
<path d="M300,0C134.314,0,0,134.314,0,300s134.314,300,300,300s300-134.314,300-300S465.686,0,300,0z M469.05,228.427
	c0.157,3.52,0.237,7.059,0.237,10.616c0,108.445-82.543,233.492-233.49,233.492c-46.344,0-89.479-13.585-125.797-36.869
	c6.42,0.757,12.952,1.146,19.576,1.146c38.448,0,73.833-13.119,101.919-35.129c-35.911-0.663-66.217-24.39-76.66-56.992
	c5.011,0.957,10.151,1.472,15.439,1.472c7.484,0,14.734-1.003,21.621-2.878c-37.542-7.538-65.83-40.707-65.83-80.468
	c0-0.346,0.001-0.689,0.007-1.032c11.065,6.146,23.718,9.839,37.171,10.265c-22.02-14.717-36.508-39.835-36.508-68.306
	c0-15.04,4.046-29.136,11.11-41.257c40.476,49.65,100.944,82.321,169.148,85.743c-1.398-6.007-2.123-12.27-2.123-18.702
	c0-45.319,36.743-82.063,82.064-82.063c23.604,0,44.931,9.966,59.902,25.916c18.691-3.681,36.255-10.51,52.111-19.915
	c-6.127,19.164-19.14,35.246-36.083,45.402c16.6-1.983,32.417-6.396,47.134-12.922C498.998,202.403,485.084,216.857,469.05,228.427z
	"/>
</svg>
