<svg xmlns="http://www.w3.org/2000/svg" viewBox="0 0 539.78 548.11" shape-rendering="crispEdges"><title>tom_poly</title><polygon points="124.8 277.62 149.12 267.58 169.75 285.56 124.8 277.62" style="fill:#3a251b"/><polygon points="128.5 223.95 149.12 237.96 145.95 226.33 128.5 223.95" style="fill:#5a3a30"/><polygon points="145.95 226.33 149.12 237.96 166.05 226.86 145.95 226.33" style="fill:#764b3f"/><polygon points="127.51 163.37 138.81 140.66 138.81 151.5 127.51 163.37" style="fill:#fbc9c3"/><polygon points="145.95 140.66 156 129.56 160.76 148.07 145.95 140.66" style="fill:#f9b7b2"/><polygon points="119.51 211.26 137.29 199.63 133.66 210.47 119.51 211.26" style="fill:#67292a"/><polygon points="149.12 210.47 137.29 199.63 133.66 210.47 149.12 210.47" style="fill:#502123"/><polygon points="166.05 202.44 150.98 198.76 149.12 210.47 166.05 202.44" style="fill:#9e4c52"/><polygon points="137.29 199.63 150.98 198.76 149.12 210.47 137.29 199.63" style="fill:#814144"/><polygon points="166.05 202.44 182.44 215.75 166.84 211.26 166.05 202.44" style="fill:#5f2528"/><polygon points="149.12 210.47 166.05 202.44 166.84 211.26 149.12 210.47" style="fill:#67292a"/><polygon points="128.5 223.95 123.61 215.16 145.95 226.33 128.5 223.95" style="fill:#693433"/><polygon points="154.41 221.04 145.95 226.33 166.05 226.86 154.41 221.04" style="fill:#9a4748"/><polygon points="123.61 215.16 119.51 211.26 133.66 210.47 123.61 215.16" style="fill:#44261d"/><polygon points="149.12 210.47 123.61 215.16 133.66 210.47 149.12 210.47" style="fill:#652a29"/><polygon points="154.41 221.04 123.61 215.16 145.95 226.33 154.41 221.04" style="fill:#b25258"/><polygon points="149.12 210.47 154.41 221.04 123.61 215.16 149.12 210.47" style="fill:#c66c75"/><polygon points="166.84 211.26 154.41 221.04 149.12 210.47 166.84 211.26" style="fill:#ecb3be"/><polygon points="174.64 221.04 166.84 211.26 154.41 221.04 174.64 221.04" style="fill:#dc8d92"/><polygon points="182.44 215.75 174.64 221.04 166.84 211.26 182.44 215.75" style="fill:#a54f4a"/><polygon points="166.05 226.86 174.64 221.04 154.41 221.04 166.05 226.86" style="fill:#c16965"/><polygon points="159.44 176.36 154.28 170.28 149.12 176.36 159.44 176.36" style="fill:#3d1c15"/><polygon points="143.97 175.3 149.12 176.36 154.28 170.28 143.97 175.3" style="fill:#3d1c17"/><polygon points="149.12 180.59 143.97 175.3 149.12 176.36 149.12 180.59" style="fill:#3e1914"/><polygon points="127.51 163.37 143.97 162.34 133.66 170.28 127.51 163.37" style="fill:#c17675"/><polygon points="133.66 170.28 140.53 170.28 143.97 162.34 133.66 170.28" style="fill:#9d5a51"/><polygon points="143.97 162.34 154.28 170.28 159.44 166.31 143.97 162.34" style="fill:#a85553"/><polygon points="127.51 163.37 130.62 172.92 133.66 170.28 127.51 163.37" style="fill:#7d4b44"/><polygon points="143.97 162.34 138.81 151.5 127.51 163.37 143.97 162.34" style="fill:#f7b9b4"/><polygon points="145.95 140.66 138.81 151.5 143.97 162.34 145.95 140.66" style="fill:#fde7ea"/><polygon points="160.76 148.07 154.28 153.62 145.95 140.66 160.76 148.07" style="fill:#f9bab6"/><polygon points="143.97 162.34 154.28 153.62 145.95 140.66 143.97 162.34" style="fill:#fde3de"/><polygon points="159.44 166.31 154.28 153.62 143.97 162.34 159.44 166.31" style="fill:#f9bbb8"/><polygon points="140.53 170.28 133.66 170.28 130.62 172.92 140.53 170.28" style="fill:#6a3637"/><polygon points="130.62 172.92 140.53 170.28 143.97 175.3 130.62 172.92" style="fill:#5d2c29"/><polygon points="149.12 180.59 130.62 172.92 143.97 175.3 149.12 180.59" style="fill:#411a15"/><polygon points="160.76 148.07 154.28 153.62 159.44 166.31 160.76 148.07" style="fill:#fbc8bf"/><polygon points="159.44 176.36 154.28 170.28 159.44 166.31 159.44 176.36" style="fill:#9a514f"/><polygon points="160.76 148.07 167.63 162.34 159.44 166.31 160.76 148.07" style="fill:#ed988a"/><polygon points="159.44 176.36 159.44 166.31 167.63 162.34 159.44 176.36" style="fill:#eca4a2"/><polygon points="169.88 178.47 167.63 162.34 159.44 176.36 169.88 178.47" style="fill:#d78680"/><polygon points="149.12 180.59 159.44 176.36 149.12 176.36 149.12 180.59" style="fill:#4a2118"/><polygon points="193.02 205.05 169.88 178.47 166.05 202.44 193.02 205.05" style="fill:#e9ada6"/><polygon points="150.98 198.76 169.88 178.47 166.05 202.44 150.98 198.76" style="fill:#b6725a"/><polygon points="182.44 215.75 166.05 202.44 184.84 212.52 182.44 215.75" style="fill:#542c27"/><polygon points="193.02 205.05 166.05 202.44 184.84 212.52 193.02 205.05" style="fill:#b5857a"/><polygon points="182.44 215.75 190.77 219.99 184.84 212.52 182.44 215.75" style="fill:#69352e"/><polygon points="116.6 193.02 133.66 177.94 125.13 199.63 116.6 193.02" style="fill:#d49c88"/><polygon points="130.62 172.92 133.66 177.94 149.12 180.59 130.62 172.92" style="fill:#5c2d27"/><polygon points="137.29 199.63 133.66 177.94 149.12 180.59 137.29 199.63" style="fill:#2f1815"/><polygon points="125.13 199.63 137.29 199.63 133.66 177.94 125.13 199.63" style="fill:#62463c"/><polygon points="119.51 211.26 125.13 199.63 137.29 199.63 119.51 211.26" style="fill:#603b34"/><polygon points="150.98 198.76 149.12 180.59 137.29 199.63 150.98 198.76" style="fill:#3b2520"/><polygon points="169.88 178.47 149.12 180.59 159.44 176.36 169.88 178.47" style="fill:#481d1a"/><polygon points="150.98 198.76 149.12 180.59 169.88 178.47 150.98 198.76" style="fill:#49211b"/><polygon points="143.97 175.3 140.53 170.28 154.28 170.28 143.97 175.3" style="fill:#4e221c"/><polygon points="143.97 162.34 140.53 170.28 154.28 170.28 143.97 162.34" style="fill:#b9675d"/><polygon points="138.81 140.66 138.81 151.5 145.95 140.66 138.81 140.66" style="fill:#fac1bf"/><polygon points="149.12 118.59 145.95 140.66 156 129.56 149.12 118.59" style="fill:#fce1e4"/><polygon points="138.81 140.66 149.12 118.59 145.95 140.66 138.81 140.66" style="fill:#fac4be"/><polygon points="156 120.04 149.12 118.59 156 129.56 156 120.04" style="fill:#fcd8d4"/><polygon points="138.81 140.66 141.39 130.9 149.12 118.59 138.81 140.66" style="fill:#ecb0ab"/><polygon points="166.05 226.86 149.12 237.96 169.88 232.41 166.05 226.86" style="fill:#905d53"/><polygon points="174.64 221.04 182.44 215.75 190.77 219.99 174.64 221.04" style="fill:#93453e"/><polygon points="166.05 226.86 169.88 232.41 174.64 221.04 166.05 226.86" style="fill:#c8867b"/><polygon points="190.77 219.99 174.64 221.04 169.88 232.41 190.77 219.99" style="fill:#d49386"/><polygon points="149.12 237.96 129.16 236.44 128.5 223.95 149.12 237.96" style="fill:#5b3028"/><polygon points="123.61 215.16 128.5 223.95 129.16 236.44 123.61 215.16" style="fill:#6e483e"/><polygon points="149.12 267.58 177.09 270.55 169.75 285.56 149.12 267.58" style="fill:#2b1916"/><polygon points="124.8 277.62 114.22 257.07 130.29 265.2 124.8 277.62" style="fill:#463125"/><polygon points="149.12 267.58 130.29 265.2 124.8 277.62 149.12 267.58" style="fill:#442d23"/><polygon points="149.12 237.96 119.51 246.56 143.97 259.05 149.12 237.96" style="fill:#c47f70"/><polygon points="169.75 248.51 149.12 237.96 143.97 259.05 169.75 248.51" style="fill:#d3978d"/><polygon points="130.29 265.2 143.97 259.05 119.51 246.56 130.29 265.2" style="fill:#946451"/><polygon points="114.22 257.07 119.51 246.56 130.29 265.2 114.22 257.07" style="fill:#553b30"/><polygon points="149.12 267.58 130.29 265.2 143.97 259.05 149.12 267.58" style="fill:#8a584b"/><polygon points="129.16 236.44 119.51 246.56 149.12 237.96 129.16 236.44" style="fill:#7c4f44"/><polygon points="169.75 248.51 149.12 237.96 169.88 232.41 169.75 248.51" style="fill:#ca8b81"/><polygon points="190.77 219.99 169.88 232.41 169.75 248.51 190.77 219.99" style="fill:#d3978d"/><polygon points="143.97 259.05 149.12 267.58 164.53 260.44 143.97 259.05" style="fill:#9c6959"/><polygon points="169.75 248.51 164.53 260.44 143.97 259.05 169.75 248.51" style="fill:#c88e7c"/><polygon points="177.09 270.55 164.53 260.44 149.12 267.58 177.09 270.55" style="fill:#7a4237"/><polygon points="169.75 248.51 177.09 270.55 164.53 260.44 169.75 248.51" style="fill:#966350"/><polygon points="138.81 140.66 129.16 147.14 127.51 163.37 138.81 140.66" style="fill:#b7867e"/><polygon points="110.26 157.19 112.55 147.35 129.16 147.14 110.26 157.19" style="fill:#9c6b62"/><polygon points="127.51 163.37 110.26 157.19 129.16 147.14 127.51 163.37" style="fill:#c98e7c"/><polygon points="119.51 211.26 114.82 208.62 125.13 199.63 119.51 211.26" style="fill:#62463c"/><polygon points="116.6 193.02 114.82 208.62 125.13 199.63 116.6 193.02" style="fill:#8f6856"/><polygon points="106.09 170.41 105.31 176.36 127.51 163.37 106.09 170.41" style="fill:#d59890"/><polygon points="110.26 157.19 106.09 170.41 127.51 163.37 110.26 157.19" style="fill:#d19e90"/><polygon points="104.11 185.48 116.6 193.02 106.09 206.37 104.11 185.48" style="fill:#8d5e53"/><polygon points="130.62 172.92 133.66 177.94 116.6 193.02 130.62 172.92" style="fill:#ba7460"/><polygon points="116.6 193.02 127.51 163.37 130.62 172.92 116.6 193.02" style="fill:#d2837f"/><polygon points="127.51 163.37 109.27 177.94 116.6 193.02 127.51 163.37" style="fill:#ca8b84"/><polygon points="124.04 237.34 123.05 226.86 129.16 236.44 124.04 237.34" style="fill:#6c443b"/><polygon points="123.61 215.16 117.89 223.95 123.05 226.86 123.61 215.16" style="fill:#8a5f55"/><polygon points="129.16 236.44 123.61 215.16 123.05 226.86 129.16 236.44" style="fill:#714e42"/><polygon points="119.51 246.56 124.04 237.34 129.16 236.44 119.51 246.56" style="fill:#6d473e"/><polygon points="119.51 211.26 117.89 223.95 123.61 215.16 119.51 211.26" style="fill:#805548"/><polygon points="123.05 226.86 124.04 237.34 117.89 223.95 123.05 226.86" style="fill:#734e45"/><polygon points="114.82 208.62 117.89 223.95 119.51 211.26 114.82 208.62" style="fill:#5d352d"/><polygon points="116.6 193.02 114.82 208.62 106.09 206.37 116.6 193.02" style="fill:#755349"/><polygon points="117.89 223.95 106.09 206.37 114.82 208.62 117.89 223.95" style="fill:#69493e"/><polygon points="119.51 246.56 117.89 223.95 124.04 237.34 119.51 246.56" style="fill:#6c4e42"/><polygon points="106.09 206.37 109.27 232.41 117.89 223.95 106.09 206.37" style="fill:#583c34"/><polygon points="119.51 246.56 117.89 223.95 109.27 232.41 119.51 246.56" style="fill:#55382a"/><polygon points="114.22 257.07 109.27 232.41 119.51 246.56 114.22 257.07" style="fill:#463124"/><polygon points="104.11 185.48 105.31 176.36 116.6 193.02 104.11 185.48" style="fill:#a66a63"/><polygon points="127.51 163.37 109.27 177.94 105.31 176.36 127.51 163.37" style="fill:#c98982"/><polygon points="105.31 176.36 109.27 177.94 116.6 193.02 105.31 176.36" style="fill:#af766a"/><polygon points="169.88 178.47 177.09 171.6 193.02 205.05 169.88 178.47" style="fill:#f3bab3"/><polygon points="167.63 162.34 177.09 171.6 169.88 178.47 167.63 162.34" style="fill:#b86a60"/><polygon points="169.75 248.51 185.61 241.5 177.09 270.55 169.75 248.51" style="fill:#a56c5b"/><polygon points="190.77 219.99 169.75 248.51 185.61 241.5 190.77 219.99" style="fill:#ca8b81"/><polygon points="184.84 212.52 193.02 205.05 190.77 219.99 184.84 212.52" style="fill:#d49386"/><polygon points="169.75 285.56 189.18 282.65 177.09 270.55 169.75 285.56" style="fill:#2b1815"/><polygon points="185.61 241.5 196.32 265.2 177.09 270.55 185.61 241.5" style="fill:#7a543b"/><polygon points="190.77 219.99 201.28 239.22 185.61 241.5 190.77 219.99" style="fill:#b47768"/><polygon points="177.09 270.55 196.32 265.2 189.18 282.65 177.09 270.55" style="fill:#372319"/><polygon points="185.61 241.5 201.28 239.22 196.32 265.2 185.61 241.5" style="fill:#6e4b37"/><polygon points="189.18 282.65 211.39 279.97 196.32 265.2 189.18 282.65" style="fill:#301a19"/><polygon points="201.28 239.22 215.16 259.53 196.32 265.2 201.28 239.22" style="fill:#5c3830"/><polygon points="211.39 279.97 196.32 265.2 215.16 259.53 211.39 279.97" style="fill:#362219"/><polygon points="201.28 239.22 230.83 229.5 215.16 259.53 201.28 239.22" style="fill:#5a312b"/><polygon points="211.39 279.97 243.73 268.41 215.16 259.53 211.39 279.97" style="fill:#321e1a"/><polygon points="190.77 219.99 217.14 213.11 201.28 239.22 190.77 219.99" style="fill:#a86c62"/><polygon points="230.83 229.5 217.14 213.11 201.28 239.22 230.83 229.5" style="fill:#72443c"/><polygon points="215.16 259.53 248.67 244.74 230.83 229.5 215.16 259.53" style="fill:#4f2d27"/><polygon points="243.73 268.41 215.16 259.53 248.67 244.74 243.73 268.41" style="fill:#38231c"/><polygon points="193.02 205.05 190.77 219.99 217.14 213.11 193.02 205.05" style="fill:#b47768"/><polygon points="93.4 146.08 88.25 128.37 105.31 147.14 93.4 146.08" style="fill:#d8d0d1"/><polygon points="91.62 116.87 88.25 128.37 107.68 115.28 91.62 116.87" style="fill:#7f7966"/><polygon points="105.31 147.14 112.55 147.35 114.82 131.34 105.31 147.14" style="fill:#b8afa2"/><polygon points="107.68 115.28 112.64 114.29 114.82 131.34 107.68 115.28" style="fill:#8c876e"/><polygon points="88.25 128.37 114.82 131.34 105.31 147.14 88.25 128.37" style="fill:#ac9d8e"/><polygon points="107.68 115.28 88.25 128.37 114.82 131.34 107.68 115.28" style="fill:#93866c"/><polygon points="112.64 114.29 129.16 115.28 117.99 123.31 112.64 114.29" style="fill:#614843"/><polygon points="112.55 147.35 129.16 138.81 129.16 147.14 112.55 147.35" style="fill:#91726f"/><polygon points="138.81 140.66 129.16 138.81 129.16 147.14 138.81 140.66" style="fill:#876467"/><polygon points="123.42 132.87 119.12 130.75 126.27 131.99 123.42 132.87" style="fill:#857c93"/><polygon points="123.42 132.87 133.99 132.53 126.27 131.99 123.42 132.87" style="fill:#72697e"/><polygon points="118.73 124.47 114.82 131.34 119.12 130.75 118.73 124.47" style="fill:#6f667b"/><polygon points="123.42 132.87 114.82 131.34 119.12 130.75 123.42 132.87" style="fill:#6f667b"/><polygon points="112.64 114.29 114.82 131.34 117.99 123.31 112.64 114.29" style="fill:#624e40"/><polygon points="112.55 147.35 123.42 132.87 114.82 131.34 112.55 147.35" style="fill:#593c34"/><polygon points="129.16 138.81 123.42 132.87 112.55 147.35 129.16 138.81" style="fill:#6e524d"/><polygon points="138.81 140.66 141.39 130.9 133.99 132.53 138.81 140.66" style="fill:#71524a"/><polygon points="129.16 138.81 123.42 132.87 138.81 140.66 129.16 138.81" style="fill:#875a53"/><polygon points="133.99 132.53 123.42 132.87 138.81 140.66 133.99 132.53" style="fill:#755449"/><polygon points="129.16 123.21 129.16 115.28 125.5 122.82 129.16 123.21" style="fill:#573f3f"/><polygon points="144.37 118.59 129.16 115.28 129.16 123.21 144.37 118.59" style="fill:#644b49"/><polygon points="141.39 130.9 133.99 132.53 140.13 129.48 141.39 130.9" style="fill:#584143"/><polygon points="129.16 123.21 144.37 118.59 140.66 128.79 129.16 123.21" style="fill:#503939"/><polygon points="141.39 130.9 140.66 128.79 144.37 118.59 141.39 130.9" style="fill:#745852"/><polygon points="144.37 118.59 149.12 118.59 141.39 130.9 144.37 118.59" style="fill:#503a34"/><polygon points="149.12 118.59 147.41 107.88 133.66 105.23 149.12 118.59" style="fill:#543530"/><polygon points="144.37 118.59 149.12 118.59 133.66 105.23 144.37 118.59" style="fill:#543731"/><polygon points="129.16 115.28 133.66 105.23 144.37 118.59 129.16 115.28" style="fill:#5d3b30"/><polygon points="129.16 115.28 113.64 108.41 133.66 105.23 129.16 115.28" style="fill:#5b3932"/><polygon points="112.64 114.29 113.64 108.41 129.16 115.28 112.64 114.29" style="fill:#533c31"/><polygon points="113.64 108.41 113.64 104.43 133.66 105.23 113.64 108.41" style="fill:#634a41"/><polygon points="130.68 100.98 113.64 104.43 133.66 105.23 130.68 100.98" style="fill:#725952"/><polygon points="113.64 104.43 117.22 97 130.68 100.98 113.64 104.43" style="fill:#ae887d"/><polygon points="130.68 100.98 147.41 107.88 133.66 105.23 130.68 100.98" style="fill:#725d4c"/><polygon points="149.12 118.59 156.86 108.41 147.41 107.88 149.12 118.59" style="fill:#c4807c"/><polygon points="154.28 100.72 147.41 107.88 156.86 108.41 154.28 100.72" style="fill:#c68171"/><polygon points="163.53 116.87 156.86 108.41 149.12 118.59 163.53 116.87" style="fill:#fac1b9"/><polygon points="130.68 100.98 147.41 107.88 154.28 100.72 130.68 100.98" style="fill:#8d5a4b"/><polygon points="160.76 148.07 156 129.56 163.53 116.87 160.76 148.07" style="fill:#593c34"/><polygon points="175.83 152.02 160.76 148.07 163.53 116.87 175.83 152.02" style="fill:#6e524d"/><polygon points="182.7 135.78 212.24 153.29 195.56 153.29 182.7 135.78" style="fill:#ac9491"/><polygon points="163.53 116.87 175.83 152.02 182.7 135.78 163.53 116.87" style="fill:#875a53"/><polygon points="195.56 153.29 175.83 152.02 182.7 135.78 195.56 153.29" style="fill:#a1817a"/><polygon points="163.53 116.87 174.64 116.87 182.7 135.78 163.53 116.87" style="fill:#614843"/><polygon points="212.24 153.29 217.14 142.98 182.7 135.78 212.24 153.29" style="fill:#9a7982"/><polygon points="174.64 116.87 182.7 135.78 184.84 132.53 174.64 116.87" style="fill:#6e524d"/><polygon points="188.55 126.07 186.44 116.87 184.84 132.53 188.55 126.07" style="fill:#6e524d"/><polygon points="186.44 116.87 174.64 116.87 184.84 132.53 186.44 116.87" style="fill:#614843"/><polygon points="182.7 135.78 184.84 132.53 192.26 136.1 182.7 135.78" style="fill:#664e39"/><polygon points="210.43 135.48 204.38 136.96 217.14 142.98 210.43 135.48" style="fill:#9a7982"/><polygon points="182.7 135.78 192.26 136.1 217.14 142.98 182.7 135.78" style="fill:#ac9491"/><polygon points="212.24 134.44 217.14 142.98 210.43 135.48 212.24 134.44" style="fill:#91726f"/><polygon points="194.17 124.74 203.27 120.04 198.67 126.42 194.17 124.74" style="fill:#857885"/><polygon points="203.27 120.04 208.62 129.82 198.67 126.42 203.27 120.04" style="fill:#9a7982"/><polygon points="219.83 126.92 203.27 120.04 208.62 129.82 219.83 126.92" style="fill:#91726f"/><polygon points="208.62 129.82 212.24 134.44 219.83 126.92 208.62 129.82" style="fill:#9a7982"/><polygon points="212.24 134.44 219.83 126.92 217.14 142.98 212.24 134.44" style="fill:#99847b"/><polygon points="186.44 116.87 194.17 124.74 203.27 120.04 186.44 116.87" style="fill:#776057"/><polygon points="188.55 126.07 194.17 124.74 186.44 116.87 188.55 126.07" style="fill:#614843"/><polygon points="167.63 162.34 160.76 148.07 175.83 152.02 167.63 162.34" style="fill:#dea1a1"/><polygon points="177.09 171.6 167.63 162.34 175.83 152.02 177.09 171.6" style="fill:#d28a7c"/><polygon points="195.56 153.29 175.83 152.02 177.09 171.6 195.56 153.29" style="fill:#f6c8c4"/><polygon points="202.14 191.76 177.09 171.6 195.56 153.29 202.14 191.76" style="fill:#ecb8ad"/><polygon points="193.02 205.05 202.14 191.76 177.09 171.6 193.02 205.05" style="fill:#d49386"/><polygon points="217.14 213.11 202.14 191.76 193.02 205.05 217.14 213.11" style="fill:#c88b7e"/><polygon points="218.93 171.6 195.56 153.29 202.14 191.76 218.93 171.6" style="fill:#f7c0c2"/><polygon points="212.24 153.29 218.93 171.6 195.56 153.29 212.24 153.29" style="fill:#e9bdb4"/><polygon points="217.14 213.11 218.93 171.6 202.14 191.76 217.14 213.11" style="fill:#c37a79"/><polygon points="217.14 142.98 212.24 153.29 237.17 150.08 217.14 142.98" style="fill:#d6aea3"/><polygon points="218.93 171.6 212.24 153.29 235.98 157.19 218.93 171.6" style="fill:#f2cdc2"/><polygon points="237.17 150.08 212.24 153.29 235.98 157.19 237.17 150.08" style="fill:#e5b6a8"/><polygon points="218.93 171.6 251.71 159.97 235.98 157.19 218.93 171.6" style="fill:#ebbcb1"/><polygon points="237.17 150.08 235.98 157.19 251.71 159.97 237.17 150.08" style="fill:#edb5aa"/><polygon points="217.14 213.11 241.01 179.8 218.93 171.6 217.14 213.11" style="fill:#c17471"/><polygon points="251.71 159.97 218.93 171.6 241.01 179.8 251.71 159.97" style="fill:#d39484"/><polygon points="243.73 268.41 269.3 254.54 248.67 244.74 243.73 268.41" style="fill:#37241a"/><polygon points="230.83 229.5 254.82 216.15 248.67 244.74 230.83 229.5" style="fill:#4f2c26"/><polygon points="248.67 244.74 272.67 223.95 269.3 254.54 248.67 244.74" style="fill:#3d241a"/><polygon points="230.83 229.5 217.14 213.11 248.67 197.78 230.83 229.5" style="fill:#7a4b44"/><polygon points="248.67 244.74 254.82 216.15 272.67 223.95 248.67 244.74" style="fill:#422820"/><polygon points="230.83 229.5 254.82 216.15 248.67 197.78 230.83 229.5" style="fill:#5d332d"/><polygon points="241.01 179.8 248.67 197.78 217.14 213.11 241.01 179.8" style="fill:#985e54"/><polygon points="269.3 254.54 283.97 213.64 272.67 223.95 269.3 254.54" style="fill:#492e23"/><polygon points="254.82 216.15 282.19 196.45 272.67 223.95 254.82 216.15" style="fill:#45271e"/><polygon points="283.97 213.64 282.19 196.45 272.67 223.95 283.97 213.64" style="fill:#472925"/><polygon points="254.82 216.15 275.64 175.3 282.19 196.45 254.82 216.15" style="fill:#5f3b35"/><polygon points="283.97 213.64 294.88 175.3 282.19 196.45 283.97 213.64" style="fill:#583730"/><polygon points="275.64 175.3 283.97 157.44 289.92 169.35 275.64 175.3" style="fill:#77534d"/><polygon points="294.88 175.3 282.19 196.45 275.64 175.3 294.88 175.3" style="fill:#623e34"/><polygon points="289.92 169.35 294.88 175.3 275.64 175.3 289.92 169.35" style="fill:#502d28"/><polygon points="254.82 216.15 248.67 197.78 275.64 175.3 254.82 216.15" style="fill:#6f483f"/><polygon points="241.01 179.8 254.82 175.3 248.67 197.78 241.01 179.8" style="fill:#b47768"/><polygon points="275.64 175.3 254.82 175.3 248.67 197.78 275.64 175.3" style="fill:#956351"/><polygon points="251.71 159.97 241.01 179.8 254.82 175.3 251.71 159.97" style="fill:#c88b7e"/><polygon points="283.97 157.44 254.82 175.3 275.64 175.3 283.97 157.44" style="fill:#a86c62"/><polygon points="251.71 159.97 283.97 157.44 254.82 175.3 251.71 159.97" style="fill:#b67a68"/><polygon points="163.53 116.87 169.88 105.23 174.64 116.87 163.53 116.87" style="fill:#af5b4d"/><polygon points="186.44 116.87 215.53 109.13 169.88 105.23 186.44 116.87" style="fill:#6f3d34"/><polygon points="174.64 116.87 186.44 116.87 169.88 105.23 174.64 116.87" style="fill:#693027"/><polygon points="215.53 109.13 186.44 116.87 203.27 120.04 215.53 109.13" style="fill:#a87570"/><polygon points="219.83 126.92 203.27 120.04 215.53 109.13 219.83 126.92" style="fill:#bd928a"/><polygon points="169.88 105.23 199.92 99.61 215.53 109.13 169.88 105.23" style="fill:#6a5348"/><polygon points="217.14 142.98 224.28 131.63 219.83 126.92 217.14 142.98" style="fill:#836b73"/><polygon points="230.83 132.53 224.28 131.63 224.28 135.78 230.83 132.53" style="fill:#694042"/><polygon points="217.14 142.98 224.28 135.78 224.28 131.63 217.14 142.98" style="fill:#5e3e43"/><polygon points="241.01 133.71 230.83 132.53 224.28 135.78 241.01 133.71" style="fill:#46373d"/><polygon points="251.71 135.78 224.28 135.78 241.01 133.71 251.71 135.78" style="fill:#40363a"/><polygon points="237.17 150.08 275.64 146.61 251.71 159.97 237.17 150.08" style="fill:#daa395"/><polygon points="283.97 157.44 275.64 146.61 251.71 159.97 283.97 157.44" style="fill:#b9766c"/><polygon points="237.17 150.08 224.28 135.78 217.14 142.98 237.17 150.08" style="fill:#b97d6f"/><polygon points="251.71 135.78 237.17 150.08 224.28 135.78 251.71 135.78" style="fill:#a46a5c"/><polygon points="275.64 146.61 251.71 135.78 237.17 150.08 275.64 146.61" style="fill:#c5907f"/><polygon points="282.19 137.19 251.71 135.78 275.64 146.61 282.19 137.19" style="fill:#bc7e73"/><polygon points="241.01 133.71 251.71 135.78 280 134.95 241.01 133.71" style="fill:#46373d"/><polygon points="282.19 137.19 280 134.95 251.71 135.78 282.19 137.19" style="fill:#5b4543"/><polygon points="156.86 108.41 169.88 105.23 163.53 116.87 156.86 108.41" style="fill:#e5a291"/><polygon points="199.92 99.61 232.64 110.26 215.53 109.13 199.92 99.61" style="fill:#a27672"/><polygon points="219.83 126.92 238 125.3 215.53 109.13 219.83 126.92" style="fill:#8f5e55"/><polygon points="232.64 110.26 215.53 109.13 238 125.3 232.64 110.26" style="fill:#a37367"/><polygon points="224.28 131.63 219.83 126.92 238 125.3 224.28 131.63" style="fill:#7e4e47"/><polygon points="230.83 132.53 224.28 131.63 238 125.3 230.83 132.53" style="fill:#825348"/><polygon points="241.01 133.71 238 125.3 230.83 132.53 241.01 133.71" style="fill:#784643"/><polygon points="117.22 97 123.38 70.07 127.51 89.63 117.22 97" style="fill:#cc9c91"/><polygon points="154.28 100.72 172.36 88.05 156.86 108.41 154.28 100.72" style="fill:#d28677"/><polygon points="169.88 105.23 172.36 88.05 156.86 108.41 169.88 105.23" style="fill:#ca887b"/><polygon points="199.92 99.61 183.76 94.39 169.88 105.23 199.92 99.61" style="fill:#bc7b6f"/><polygon points="172.36 88.05 183.76 94.39 169.88 105.23 172.36 88.05" style="fill:#df988c"/><polygon points="199.92 99.61 216.28 94.39 232.64 110.26 199.92 99.61" style="fill:#e8b5aa"/><polygon points="241.01 133.71 238 125.3 245.37 123.06 241.01 133.71" style="fill:#8a594e"/><polygon points="232.64 110.26 245.37 123.06 238 125.3 232.64 110.26" style="fill:#996961"/><polygon points="130.68 100.98 127.51 89.63 154.28 100.72 130.68 100.98" style="fill:#a9796d"/><polygon points="117.22 97 127.51 89.63 130.68 100.98 117.22 97" style="fill:#c39484"/><polygon points="154.28 100.72 127.51 89.63 151.7 91.22 154.28 100.72" style="fill:#d89b8a"/><polygon points="172.36 88.05 151.7 91.22 154.28 100.72 172.36 88.05" style="fill:#e7a498"/><polygon points="197.05 35.43 224.22 25.12 210.53 52.35 197.05 35.43" style="fill:#fffefd"/><polygon points="243.85 35.17 224.22 25.12 210.53 52.35 243.85 35.17" style="fill:#fff"/><polygon points="123.38 70.07 139.87 42.3 143.97 66.63 123.38 70.07" style="fill:#e8b5aa"/><polygon points="164.66 25.12 139.87 42.3 163.53 44.69 164.66 25.12" style="fill:#fdded7"/><polygon points="143.97 66.63 163.53 44.69 139.87 42.3 143.97 66.63" style="fill:#fdd9ce"/><polygon points="123.38 70.07 143.97 66.63 127.51 89.63 123.38 70.07" style="fill:#e0ae9d"/><polygon points="151.7 91.22 143.97 66.63 127.51 89.63 151.7 91.22" style="fill:#f2bdad"/><polygon points="143.97 66.63 172.36 63.46 151.7 91.22 143.97 66.63" style="fill:#fbcdbc"/><polygon points="163.53 44.69 172.36 63.46 143.97 66.63 163.53 44.69" style="fill:#fcd6cb"/><polygon points="172.36 88.05 172.36 63.46 151.7 91.22 172.36 88.05" style="fill:#fbc9be"/><polygon points="183.76 94.39 199.92 99.61 216.28 94.39 183.76 94.39" style="fill:#e2ada8"/><polygon points="172.36 88.05 216.28 94.39 183.76 94.39 172.36 88.05" style="fill:#e6a49a"/><polygon points="280 134.95 241.01 133.71 264.4 122.27 280 134.95" style="fill:#ae7169"/><polygon points="245.37 123.06 264.4 122.27 241.01 133.71 245.37 123.06" style="fill:#b57f77"/><polygon points="280 134.95 278.15 108.41 264.4 122.27 280 134.95" style="fill:#9e665b"/><polygon points="245.37 123.06 241.01 84.61 264.4 103.11 245.37 123.06" style="fill:#c38775"/><polygon points="264.4 122.27 264.4 103.11 245.37 123.06 264.4 122.27" style="fill:#c08178"/><polygon points="278.15 108.41 264.4 103.11 264.4 122.27 278.15 108.41" style="fill:#b2766c"/><polygon points="232.64 110.26 241.01 84.61 245.37 123.06 232.64 110.26" style="fill:#d19081"/><polygon points="216.28 94.39 241.01 84.61 232.64 110.26 216.28 94.39" style="fill:#e6ad9f"/><polygon points="172.36 88.05 203.27 61.61 216.28 94.39 172.36 88.05" style="fill:#fcd9d6"/><polygon points="172.36 63.46 203.27 61.61 172.36 88.05 172.36 63.46" style="fill:#fcd5c9"/><polygon points="241.01 84.61 232.64 61.61 216.28 94.39 241.01 84.61" style="fill:#f8c6ba"/><polygon points="203.27 61.61 216.28 94.39 232.64 61.61 203.27 61.61" style="fill:#fbd5cf"/><polygon points="172.36 63.46 163.53 44.69 197.05 35.43 172.36 63.46" style="fill:#fddfd1"/><polygon points="203.27 61.61 210.53 52.35 197.05 35.43 203.27 61.61" style="fill:#fef1f1"/><polygon points="172.36 63.46 197.05 35.43 203.27 61.61 172.36 63.46" style="fill:#fde5e0"/><polygon points="163.53 44.69 164.66 25.12 197.05 35.43 163.53 44.69" style="fill:#feebe0"/><polygon points="203.27 61.61 210.53 52.35 232.64 61.61 203.27 61.61" style="fill:#fee9e6"/><polygon points="243.85 35.17 210.53 52.35 232.64 61.61 243.85 35.17" style="fill:#feefef"/><polygon points="280 134.95 283.97 134.16 282.19 137.19 280 134.95" style="fill:#372a26"/><polygon points="302.61 135.78 283.97 134.16 285.26 138.71 302.61 135.78" style="fill:#5d6180"/><polygon points="282.19 137.19 285.26 138.71 283.97 134.16 282.19 137.19" style="fill:#33272b"/><polygon points="302.61 135.78 303.4 141.19 285.26 138.71 302.61 135.78" style="fill:#3d475f"/><polygon points="308.16 138.96 302.61 135.78 303.4 141.19 308.16 138.96" style="fill:#5d5765"/><polygon points="275.64 146.61 282.19 137.19 283.97 157.44 275.64 146.61" style="fill:#59403a"/><polygon points="285.26 138.71 282.19 137.19 283.97 157.44 285.26 138.71" style="fill:#2d1d18"/><polygon points="303.4 141.19 293.29 157.19 285.26 138.71 303.4 141.19" style="fill:#0f0e0f"/><polygon points="283.97 157.44 285.26 138.71 293.29 157.19 283.97 157.44" style="fill:#171314"/><polygon points="289.92 169.35 283.97 157.44 293.29 157.19 289.92 169.35" style="fill:#352821"/><polygon points="294.88 175.3 289.92 169.35 293.29 157.19 294.88 175.3" style="fill:#40281f"/><polygon points="280 134.95 283.97 134.16 278.15 108.41 280 134.95" style="fill:#643c35"/><polygon points="286.35 86.53 278.15 108.41 289.92 109.13 286.35 86.53" style="fill:#855c4f"/><polygon points="283.97 134.16 289.92 109.13 278.15 108.41 283.97 134.16" style="fill:#6e4941"/><polygon points="302.61 135.78 302.61 109.13 283.97 134.16 302.61 135.78" style="fill:#201615"/><polygon points="289.92 109.13 302.61 109.13 283.97 134.16 289.92 109.13" style="fill:#3e2f2c"/><polygon points="302.61 135.78 318.28 120.04 302.61 109.13 302.61 135.78" style="fill:#262320"/><polygon points="315.5 92.28 302.61 109.13 318.28 120.04 315.5 92.28" style="fill:#231d1c"/><polygon points="289.92 109.13 300.23 80.38 302.61 109.13 289.92 109.13" style="fill:#3d2e2b"/><polygon points="315.5 92.28 302.61 109.13 300.23 80.38 315.5 92.28" style="fill:#4c4343"/><polygon points="286.35 86.53 300.23 80.38 289.92 109.13 286.35 86.53" style="fill:#715953"/><polygon points="264.4 103.11 286.35 86.53 278.15 108.41 264.4 103.11" style="fill:#a87465"/><polygon points="241.01 84.61 264.4 69.08 264.4 103.11 241.01 84.61" style="fill:#eab1a1"/><polygon points="286.35 86.53 264.4 69.08 264.4 103.11 286.35 86.53" style="fill:#e7ae9d"/><polygon points="300.23 80.38 285.26 52.35 286.35 86.53 300.23 80.38" style="fill:#b19285"/><polygon points="315.5 92.28 302.61 55.66 300.23 80.38 315.5 92.28" style="fill:#453f30"/><polygon points="285.26 52.35 300.23 80.38 302.61 55.66 285.26 52.35" style="fill:#a68982"/><polygon points="264.4 69.08 285.26 52.35 286.35 86.53 264.4 69.08" style="fill:#f0c3b3"/><polygon points="232.64 61.61 264.4 69.08 241.01 84.61 232.64 61.61" style="fill:#f9c6b3"/><polygon points="243.85 35.17 232.64 61.61 264.4 69.08 243.85 35.17" style="fill:#fdd9ca"/><polygon points="285.26 52.35 243.85 35.17 264.4 69.08 285.26 52.35" style="fill:#fcd8ce"/><polygon points="302.61 55.66 276.63 30.8 285.26 52.35 302.61 55.66" style="fill:#bda99e"/><polygon points="243.85 35.17 258.98 21.09 276.63 30.8 243.85 35.17" style="fill:#feebe4"/><polygon points="285.26 52.35 276.63 30.8 243.85 35.17 285.26 52.35" style="fill:#fee4d6"/><polygon points="164.66 25.12 183.76 28.13 197.05 35.43 164.66 25.12" style="fill:#fde4d9"/><polygon points="224.22 25.12 183.76 28.13 197.05 35.43 224.22 25.12" style="fill:#fffaf7"/><polygon points="224.22 25.12 258.98 21.09 243.85 35.17 224.22 25.12" style="fill:#fff8f7"/><polygon points="164.66 25.12 159.65 26.44 183.76 6.35 164.66 25.12" style="fill:#8b705f"/><polygon points="208.62 1.59 183.76 6.35 183.76 14.01 208.62 1.59" style="fill:#a2937b"/><polygon points="164.66 25.12 183.76 6.35 183.76 14.01 164.66 25.12" style="fill:#8e806c"/><polygon points="183.76 28.13 183.76 14.01 164.66 25.12 183.76 28.13" style="fill:#ad8274"/><polygon points="208.62 1.59 183.76 28.13 183.76 14.01 208.62 1.59" style="fill:#b7a295"/><polygon points="224.22 25.12 215.53 9.52 243.85 0 224.22 25.12" style="fill:#b09583"/><polygon points="208.62 1.59 243.85 0 215.53 9.52 208.62 1.59" style="fill:#aa9176"/><polygon points="224.22 25.12 215.53 9.52 203.99 17.32 224.22 25.12" style="fill:#b99d8c"/><polygon points="208.62 1.59 183.76 28.13 203.99 17.32 208.62 1.59" style="fill:#af9b91"/><polygon points="215.53 9.52 208.62 1.59 203.99 17.32 215.53 9.52" style="fill:#b09987"/><polygon points="183.76 28.13 203.99 17.32 224.22 25.12 183.76 28.13" style="fill:#ccab99"/><polygon points="224.22 25.12 240.08 19.3 258.98 21.09 224.22 25.12" style="fill:#fcd2c1"/><polygon points="243.85 0 268.5 7.8 243.85 11.63 243.85 0" style="fill:#826651"/><polygon points="224.22 25.12 240.08 19.3 243.85 11.63 224.22 25.12" style="fill:#c49983"/><polygon points="243.85 0 224.22 25.12 243.85 11.63 243.85 0" style="fill:#b08871"/><polygon points="240.08 19.3 243.85 11.63 268.5 7.8 240.08 19.3" style="fill:#a28064"/><polygon points="258.98 21.09 268.5 7.8 240.08 19.3 258.98 21.09" style="fill:#a9775e"/><polygon points="258.98 21.09 268.5 7.8 276.63 30.8 258.98 21.09" style="fill:#be987b"/><polygon points="268.5 7.8 289.92 21.09 276.63 30.8 268.5 7.8" style="fill:#8c6e59"/><polygon points="302.61 55.66 289.92 21.09 276.63 30.8 302.61 55.66" style="fill:#b19278"/><polygon points="149.12 118.59 156 120.04 160.76 118.59 149.12 118.59" style="fill:#503939"/><polygon points="163.53 116.87 149.12 118.59 160.76 118.59 163.53 116.87" style="fill:#6e524d"/><polygon points="160.76 118.59 163.53 116.87 156 129.56 160.76 118.59" style="fill:#fcd7d7"/><polygon points="156 120.04 160.76 118.59 156 129.56 156 120.04" style="fill:#fef2f2"/><polygon points="289.92 21.09 308.16 32.79 302.61 55.66 289.92 21.09" style="fill:#857164"/><polygon points="315.5 92.28 322.57 66.36 302.61 55.66 315.5 92.28" style="fill:#8e867c"/><polygon points="308.16 32.79 322.57 66.36 302.61 55.66 308.16 32.79" style="fill:#b9aa99"/><polygon points="315.5 92.28 328.39 97.83 322.57 66.36 315.5 92.28" style="fill:#6d6555"/><polygon points="308.16 32.79 322.57 66.36 324.95 52.12 308.16 32.79" style="fill:#9e8f7e"/><polygon points="338.44 88.05 324.95 52.12 322.57 66.36 338.44 88.05" style="fill:#b3a799"/><polygon points="328.39 97.83 338.44 88.05 322.57 66.36 328.39 97.83" style="fill:#7c7c75"/><polygon points="315.5 92.28 318.28 120.04 328.39 97.83 315.5 92.28" style="fill:#393c3f"/><polygon points="338.44 88.05 328.39 97.83 338.44 130.68 338.44 88.05" style="fill:#4b4940"/><polygon points="318.28 120.04 328.39 97.83 338.44 130.68 318.28 120.04" style="fill:#302726"/><polygon points="302.61 135.78 308.16 138.96 318.28 120.04 302.61 135.78" style="fill:#141111"/><polygon points="338.44 130.68 318.28 120.04 308.16 138.96 338.44 130.68" style="fill:#1e1717"/><polygon points="335.27 157.19 338.44 130.68 308.16 138.96 335.27 157.19" style="fill:#111210"/><polygon points="129.16 115.28 125.5 122.82 117.99 123.31 129.16 115.28" style="fill:#644b49"/><polygon points="194.29 128.66 192.74 131.41 195.59 131.32 194.29 128.66" style="fill:#1d1b1b"/><polygon points="195.59 133 192.74 131.41 195.59 131.32 195.59 133" style="fill:#231f1f"/><polygon points="194.29 128.66 194.07 126.07 199.2 130.68 194.29 128.66" style="fill:#362d31"/><polygon points="195.59 131.32 199.2 130.68 194.29 128.66 195.59 131.32" style="fill:#362d26"/><polygon points="197.46 133.89 199.2 130.68 195.59 131.32 197.46 133.89" style="fill:#403332"/><polygon points="195.59 133 195.59 131.32 197.46 133.89 195.59 133" style="fill:#362d26"/><polygon points="192.74 131.41 192.38 134.86 195.59 133 192.74 131.41" style="fill:#222423"/><polygon points="195.59 135.25 197.46 133.89 195.59 133 195.59 135.25" style="fill:#483d35"/><polygon points="192.38 134.86 195.59 133 195.59 135.25 192.38 134.86" style="fill:#4d3e38"/><polygon points="194.29 128.66 191.87 129.46 194.07 126.07 194.29 128.66" style="fill:#232321"/><polygon points="192.74 131.41 191.87 129.46 194.29 128.66 192.74 131.41" style="fill:#272424"/><polygon points="192.38 134.86 189.11 134.12 192.74 131.41 192.38 134.86" style="fill:#2d2929"/><polygon points="195.59 135.25 197.82 135.84 197.46 133.89 195.59 135.25" style="fill:#857c93"/><polygon points="199.2 130.68 197.46 133.89 197.82 135.84 199.2 130.68" style="fill:#6f667b"/><polygon points="199.2 130.68 198.67 126.42 194.07 126.07 199.2 130.68" style="fill:#403131"/><polygon points="197.82 135.84 204.38 136.96 199.2 130.68 197.82 135.84" style="fill:#72697e"/><polygon points="199.2 130.68 198.67 126.42 204.38 136.96 199.2 130.68" style="fill:#72697e"/><polygon points="207.24 130.9 198.67 126.42 204.38 136.96 207.24 130.9" style="fill:#857c93"/><polygon points="210.43 135.48 207.24 130.9 204.38 136.96 210.43 135.48" style="fill:#90888a"/><polygon points="198.67 126.42 208.62 129.82 207.24 130.9 198.67 126.42" style="fill:#776060"/><polygon points="210.43 135.48 207.24 130.9 208.62 129.82 210.43 135.48" style="fill:#6b5156"/><polygon points="122.12 127.67 124.73 126.26 126.12 128.5 122.12 127.67" style="fill:#1e1e1f"/><polygon points="122.84 125.12 122.12 127.67 124.73 126.26 122.84 125.12" style="fill:#1d1b1b"/><polygon points="126.12 128.5 122.84 129.4 122.12 127.67 126.12 128.5" style="fill:#1c1d1d"/><polygon points="124.73 126.26 126.39 127.35 126.12 128.5 124.73 126.26" style="fill:#242023"/><polygon points="122.84 129.4 119.12 130.75 125.03 130.47 122.84 129.4" style="fill:#292723"/><polygon points="122.12 127.67 119.12 130.75 122.84 129.4 122.12 127.67" style="fill:#232321"/><polygon points="128.75 127.9 126.12 128.5 125.03 130.47 128.75 127.9" style="fill:#3a383a"/><polygon points="122.84 129.4 126.12 128.5 125.03 130.47 122.84 129.4" style="fill:#222423"/><polygon points="127.31 126.23 126.39 127.35 128.75 127.9 127.31 126.23" style="fill:#473c3d"/><polygon points="126.12 128.5 126.39 127.35 128.75 127.9 126.12 128.5" style="fill:#3e393a"/><polygon points="122.84 125.12 125.5 122.82 124.73 126.26 122.84 125.12" style="fill:#2e2629"/><polygon points="126.39 127.35 124.73 126.26 125.5 122.82 126.39 127.35" style="fill:#292427"/><polygon points="127.31 126.23 126.39 127.35 125.5 122.82 127.31 126.23" style="fill:#362d31"/><polygon points="129.16 123.21 125.5 122.82 127.31 126.23 129.16 123.21" style="fill:#403131"/><polygon points="122.84 125.12 118.73 124.47 125.5 122.82 122.84 125.12" style="fill:#372e31"/><polygon points="118.73 124.47 122.84 125.12 122.12 127.67 118.73 124.47" style="fill:#2d2929"/><polygon points="119.12 130.75 122.12 127.67 118.73 124.47 119.12 130.75" style="fill:#231f1f"/><polygon points="119.12 130.75 125.03 130.47 126.27 131.99 119.12 130.75" style="fill:#33322a"/><polygon points="128.75 127.9 127.31 126.23 129.16 123.21 128.75 127.9" style="fill:#4b3f41"/><polygon points="125.03 130.47 128.75 127.9 126.27 131.99 125.03 130.47" style="fill:#464341"/><polygon points="208.62 129.82 212.24 134.44 210.43 135.48 208.62 129.82" style="fill:#6f5c6a"/><polygon points="189.11 134.12 192.26 136.1 192.38 134.86 189.11 134.12" style="fill:#72697e"/><polygon points="195.59 135.25 192.26 136.1 192.38 134.86 195.59 135.25" style="fill:#857c93"/><polygon points="197.82 135.84 192.26 136.1 195.59 135.25 197.82 135.84" style="fill:#6f667b"/><polygon points="204.38 136.96 197.82 135.84 192.26 136.1 204.38 136.96" style="fill:#725354"/><polygon points="217.14 142.98 204.38 136.96 192.26 136.1 217.14 142.98" style="fill:#a3887d"/><polygon points="188.55 127.38 184.84 132.53 189.11 134.12 188.55 127.38" style="fill:#6f667b"/><polygon points="188.55 127.38 194.07 126.07 191.87 129.46 188.55 127.38" style="fill:#2d2929"/><polygon points="192.74 131.41 189.11 134.12 191.87 129.46 192.74 131.41" style="fill:#232321"/><polygon points="188.55 127.38 191.87 129.46 189.11 134.12 188.55 127.38" style="fill:#231f1f"/><polygon points="184.84 132.53 189.11 134.12 192.26 136.1 184.84 132.53" style="fill:#614843"/><polygon points="184.84 132.53 188.55 126.07 188.55 127.38 184.84 132.53" style="fill:#483d35"/><polygon points="188.55 127.38 194.07 126.07 188.55 126.07 188.55 127.38" style="fill:#403131"/><polygon points="188.55 126.07 194.17 124.74 194.07 126.07 188.55 126.07" style="fill:#473833"/><polygon points="194.17 124.74 198.67 126.42 194.07 126.07 194.17 124.74" style="fill:#593c34"/><polygon points="129.16 123.21 140.13 129.48 140.66 128.79 129.16 123.21" style="fill:#372e31"/><polygon points="141.39 130.9 140.13 129.48 140.66 128.79 141.39 130.9" style="fill:#1d1b1b"/><polygon points="114.82 131.34 117.99 123.31 118.73 124.47 114.82 131.34" style="fill:#503939"/><polygon points="117.99 123.31 118.73 124.47 125.5 122.82 117.99 123.31" style="fill:#403131"/><polygon points="126.27 131.99 128.75 127.9 133.99 132.53 126.27 131.99" style="fill:#90888a"/><polygon points="129.16 123.21 128.75 127.9 133.99 132.53 129.16 123.21" style="fill:#857c93"/><polygon points="140.13 129.48 129.16 123.21 133.99 132.53 140.13 129.48" style="fill:#6f667b"/><polygon points="303.4 141.19 313.72 153.64 308.16 138.96 303.4 141.19" style="fill:#292a2b"/><polygon points="309.35 155.02 313.72 153.64 303.4 141.19 309.35 155.02" style="fill:#1f1817"/><polygon points="308.16 138.96 313.72 153.64 323.3 153.29 308.16 138.96" style="fill:#20130f"/><polygon points="335.27 157.19 323.3 153.29 308.16 138.96 335.27 157.19" style="fill:#1c120e"/><polygon points="333.42 161.81 323.3 153.29 335.27 157.19 333.42 161.81" style="fill:#3a1a10"/><polygon points="297.26 178.47 305.39 172.33 310.44 178.47 297.26 178.47" style="fill:#361614"/><polygon points="303.4 182.31 297.26 178.47 310.44 178.47 303.4 182.31" style="fill:#401515"/><polygon points="297.26 187.46 297.26 178.47 303.4 182.31 297.26 187.46" style="fill:#4c1d15"/><polygon points="291.61 198.97 297.26 187.46 297.26 194.47 291.61 198.97" style="fill:#4a1f1c"/><polygon points="310.44 178.47 314.71 182.97 303.4 182.31 310.44 178.47" style="fill:#52211b"/><polygon points="307.87 188.32 314.71 182.97 303.4 182.31 307.87 188.32" style="fill:#57201e"/><polygon points="297.26 187.46 303.4 182.31 307.87 188.32 297.26 187.46" style="fill:#50211f"/><polygon points="297.26 194.47 307.87 188.32 297.26 187.46 297.26 194.47" style="fill:#5e2e29"/><polygon points="283.97 213.64 291.61 198.97 294.88 175.3 283.97 213.64" style="fill:#714f43"/><polygon points="297.26 187.46 291.61 198.97 294.88 175.3 297.26 187.46" style="fill:#90685c"/><polygon points="297.26 178.47 294.88 175.3 297.26 187.46 297.26 178.47" style="fill:#734237"/><polygon points="305.39 172.33 300.23 162.44 297.26 178.47 305.39 172.33" style="fill:#522b23"/><polygon points="294.88 175.3 297.26 178.47 300.23 162.44 294.88 175.3" style="fill:#4b291e"/><polygon points="293.29 157.19 303.4 141.19 309.35 155.02 293.29 157.19" style="fill:#18140f"/><polygon points="300.23 162.44 293.29 157.19 294.88 175.3 300.23 162.44" style="fill:#3a1d14"/><polygon points="309.35 155.02 300.23 162.44 293.29 157.19 309.35 155.02" style="fill:#2d1914"/><polygon points="307.87 188.32 314.71 182.97 313.72 192.62 307.87 188.32" style="fill:#813f46"/><polygon points="305.69 196.45 307.87 188.32 313.72 192.62 305.69 196.45" style="fill:#8e484b"/><polygon points="297.26 194.47 307.87 188.32 305.69 196.45 297.26 194.47" style="fill:#98686a"/><polygon points="291.61 198.97 305.69 196.45 297.26 194.47 291.61 198.97" style="fill:#cea4a5"/><polygon points="296.07 211.16 291.61 198.97 283.97 213.64 296.07 211.16" style="fill:#a5827e"/><polygon points="299.54 219.79 296.07 211.16 283.97 213.64 299.54 219.79" style="fill:#905b5e"/><polygon points="286.75 219.79 283.97 213.64 299.54 219.79 286.75 219.79" style="fill:#5d2f27"/><polygon points="296.07 211.16 305.39 204.02 299.54 219.79 296.07 211.16" style="fill:#8b5956"/><polygon points="291.61 198.97 305.39 204.02 296.07 211.16 291.61 198.97" style="fill:#b28a80"/><polygon points="305.69 196.45 305.39 204.02 291.61 198.97 305.69 196.45" style="fill:#bb8886"/><polygon points="299.54 219.79 305.69 214.43 305.39 204.02 299.54 219.79" style="fill:#6c473b"/><polygon points="314.71 182.97 318.97 189.35 321.55 175.3 314.71 182.97" style="fill:#9e6a64"/><polygon points="313.72 192.62 314.71 182.97 318.97 189.35 313.72 192.62" style="fill:#c08e91"/><polygon points="315.2 197.78 318.97 189.35 313.72 192.62 315.2 197.78" style="fill:#b67d73"/><polygon points="305.69 196.45 315.2 197.78 313.72 192.62 305.69 196.45" style="fill:#d8acaf"/><polygon points="305.39 204.02 315.2 197.78 305.69 196.45 305.39 204.02" style="fill:#c08e91"/><polygon points="305.69 214.43 311.93 206.3 305.39 204.02 305.69 214.43" style="fill:#ad8185"/><polygon points="315.2 197.78 311.93 206.3 305.39 204.02 315.2 197.78" style="fill:#976c64"/><polygon points="318.97 189.35 320.76 193.21 315.2 197.78 318.97 189.35" style="fill:#6d3326"/><polygon points="325.12 181.81 318.97 189.35 321.55 175.3 325.12 181.81" style="fill:#4f1c19"/><polygon points="320.76 193.21 318.97 189.35 325.12 181.81 320.76 193.21" style="fill:#713937"/><polygon points="330.77 166.01 325.12 181.81 327.3 184.59 330.77 166.01" style="fill:#734045"/><polygon points="320.76 193.21 327.3 184.59 325.12 181.81 320.76 193.21" style="fill:#916561"/><polygon points="305.39 172.33 300.23 162.44 313.72 161.81 305.39 172.33" style="fill:#6a3c39"/><polygon points="309.35 155.02 300.23 162.44 313.72 161.81 309.35 155.02" style="fill:#905e63"/><polygon points="313.72 153.64 309.35 155.02 313.72 161.81 313.72 153.64" style="fill:#bd8c94"/><polygon points="323.3 153.29 313.72 161.81 313.72 153.64 323.3 153.29" style="fill:#daa3aa"/><polygon points="333.42 161.81 313.72 161.81 323.3 153.29 333.42 161.81" style="fill:#d29192"/><polygon points="330.77 166.01 333.42 161.81 313.72 161.81 330.77 166.01" style="fill:#905e5e"/><polygon points="321.55 175.3 330.77 166.01 325.12 181.81 321.55 175.3" style="fill:#4b1918"/><polygon points="310.44 178.47 313.72 161.81 305.39 172.33 310.44 178.47" style="fill:#4c1b19"/><polygon points="321.55 175.3 310.44 178.47 314.71 182.97 321.55 175.3" style="fill:#7b4a41"/><polygon points="313.72 161.81 321.55 175.3 310.44 178.47 313.72 161.81" style="fill:#551e1f"/><polygon points="330.77 166.01 321.55 175.3 313.72 161.81 330.77 166.01" style="fill:#451813"/><polygon points="330.77 166.01 333.42 161.81 327.3 184.59 330.77 166.01" style="fill:#5e3c3b"/><polygon points="305.69 214.43 299.54 219.79 296.07 239.21 305.69 214.43" style="fill:#221a13"/><polygon points="294.88 223.95 299.54 219.79 296.07 239.21 294.88 223.95" style="fill:#1e180f"/><polygon points="286.75 219.79 299.54 219.79 294.88 223.95 286.75 219.79" style="fill:#492a26"/><polygon points="296.07 239.21 294.88 223.95 286.75 219.79 296.07 239.21" style="fill:#483028"/><polygon points="269.3 254.54 284.37 236.78 283.97 213.64 269.3 254.54" style="fill:#482924"/><polygon points="286.75 219.79 283.97 213.64 284.37 236.78 286.75 219.79" style="fill:#452423"/><polygon points="286.75 219.79 296.07 239.21 284.37 236.78 286.75 219.79" style="fill:#452c23"/><polygon points="284.37 236.78 296.07 239.21 269.3 254.54 284.37 236.78" style="fill:#523029"/><polygon points="293.64 266.79 285.4 256.56 296.07 239.21 293.64 266.79" style="fill:#4e362b"/><polygon points="269.3 254.54 296.07 239.21 285.4 256.56 269.3 254.54" style="fill:#57342b"/><polygon points="293.64 266.79 291.41 285.56 295.37 273.43 293.64 266.79" style="fill:#442d2d"/><polygon points="285.4 256.56 272.67 308.73 293.64 266.79 285.4 256.56" style="fill:#7e5650"/><polygon points="291.41 285.56 293.64 266.79 272.67 308.73 291.41 285.56" style="fill:#6a4d40"/><polygon points="272.67 308.73 269.3 254.54 285.4 256.56 272.67 308.73" style="fill:#785045"/><polygon points="252.54 287.21 269.3 254.54 272.67 308.73 252.54 287.21" style="fill:#754d47"/><polygon points="243.73 268.41 252.54 287.21 269.3 254.54 243.73 268.41" style="fill:#7a4b44"/><polygon points="211.39 279.97 233.7 284.93 243.73 268.41 211.39 279.97" style="fill:#37201e"/><polygon points="233.7 284.93 243.73 268.41 252.54 287.21 233.7 284.93" style="fill:#6f483f"/><polygon points="241.63 312.49 252.54 287.21 272.67 308.73 241.63 312.49" style="fill:#7b584b"/><polygon points="241.63 312.49 225.07 352.85 272.67 308.73 241.63 312.49" style="fill:#78514d"/><polygon points="211.39 279.97 199.39 283.94 233.7 284.93 211.39 279.97" style="fill:#311d17"/><polygon points="241.63 312.49 233.7 284.93 252.54 287.21 241.63 312.49" style="fill:#805548"/><polygon points="189.18 282.65 199.39 283.94 211.39 279.97 189.18 282.65" style="fill:#331d1c"/><polygon points="169.75 285.56 185.61 286.71 189.18 282.65 169.75 285.56" style="fill:#2f1a1a"/><polygon points="199.39 283.94 185.61 286.71 189.18 282.65 199.39 283.94" style="fill:#2a1814"/><polygon points="124.8 277.62 151.81 285.56 169.75 285.56 124.8 277.62" style="fill:#241510"/><polygon points="169.75 285.56 164.53 289.29 185.61 286.71 169.75 285.56" style="fill:#241615"/><polygon points="185.61 286.71 199.39 283.94 233.7 284.93 185.61 286.71" style="fill:#39201e"/><polygon points="151.81 285.56 156.66 303.77 164.53 289.29 151.81 285.56" style="fill:#39201e"/><polygon points="151.81 285.56 169.75 285.56 164.53 289.29 151.81 285.56" style="fill:#241614"/><polygon points="156.66 303.77 165.5 327.65 164.53 289.29 156.66 303.77" style="fill:#392c24"/><polygon points="165.5 327.65 164.53 289.29 185.61 286.71 165.5 327.65" style="fill:#382421"/><polygon points="165.5 327.65 202.14 298.71 185.61 286.71 165.5 327.65" style="fill:#3c2624"/><polygon points="165.5 327.65 202.77 359.1 202.14 298.71 165.5 327.65" style="fill:#3c2723"/><polygon points="218.43 358.6 202.77 359.1 202.14 298.71 218.43 358.6" style="fill:#44292b"/><polygon points="218.43 358.6 225.07 352.85 202.14 298.71 218.43 358.6" style="fill:#523832"/><polygon points="225.07 352.85 241.63 312.49 233.7 284.93 225.07 352.85" style="fill:#77534d"/><polygon points="225.07 352.85 233.7 284.93 202.14 298.71 225.07 352.85" style="fill:#4e2e2c"/><polygon points="185.61 286.71 233.7 284.93 202.14 298.71 185.61 286.71" style="fill:#3d2322"/><polygon points="156.66 303.77 151.11 318.89 165.5 327.65 156.66 303.77" style="fill:#181519"/><polygon points="165.5 327.65 151.11 318.89 202.77 359.1 165.5 327.65" style="fill:#171212"/><polygon points="151.11 318.89 168.25 345.42 202.77 359.1 151.11 318.89" style="fill:#252032"/><polygon points="168.25 345.42 148.61 354.93 151.11 318.89 168.25 345.42" style="fill:#2d2a37"/><polygon points="143.23 409.24 161.37 369.82 146.41 378.08 143.23 409.24" style="fill:#211f32"/><polygon points="148.61 354.93 161.37 369.82 146.41 378.08 148.61 354.93" style="fill:#14131c"/><polygon points="202.77 359.1 168.25 345.42 148.61 354.93 202.77 359.1" style="fill:#312a46"/><polygon points="161.37 369.82 202.77 359.1 148.61 354.93 161.37 369.82" style="fill:#302a47"/><polygon points="143.23 409.24 173.26 381.83 161.37 369.82 143.23 409.24" style="fill:#2a243e"/><polygon points="202.77 359.1 184.83 372.91 161.37 369.82 202.77 359.1" style="fill:#3d3754"/><polygon points="143.23 409.24 142.6 422.87 173.26 381.83 143.23 409.24" style="fill:#352e4a"/><polygon points="239.1 372.29 260.44 379.69 225.07 352.85 239.1 372.29" style="fill:#9c95c9"/><polygon points="260.44 379.69 296.64 354.93 284.5 398.98 260.44 379.69" style="fill:#a69ccc"/><polygon points="272.67 308.73 260.44 379.69 225.07 352.85 272.67 308.73" style="fill:#958dc4"/><polygon points="293.64 266.79 295.37 273.43 298.39 273.43 293.64 266.79" style="fill:#373842"/><polygon points="295.37 273.43 291.41 285.56 298.39 273.43 295.37 273.43" style="fill:#312533"/><polygon points="298.39 273.43 305.52 281.64 300.14 285.56 298.39 273.43" style="fill:#544f67"/><polygon points="291.41 285.56 298.39 273.43 300.14 285.56 291.41 285.56" style="fill:#605484"/><polygon points="300.14 285.56 310.15 302.77 305.52 281.64 300.14 285.56" style="fill:#545070"/><polygon points="310.15 302.77 308.15 313.14 300.14 285.56 310.15 302.77" style="fill:#6a6399"/><polygon points="272.67 308.73 291.41 285.56 300.14 285.56 272.67 308.73" style="fill:#8a82be"/><polygon points="300.14 285.56 272.67 308.73 308.15 313.14 300.14 285.56" style="fill:#8178b3"/><polygon points="272.67 308.73 296.64 354.93 260.44 379.69 272.67 308.73" style="fill:#8c85be"/><polygon points="272.67 308.73 308.15 313.14 296.64 354.93 272.67 308.73" style="fill:#7e75ae"/><polygon points="142.6 422.87 173.26 381.83 184.83 385.48 142.6 422.87" style="fill:#0f0e16"/><polygon points="161.37 369.82 173.26 381.83 184.83 372.91 161.37 369.82" style="fill:#3b3552"/><polygon points="184.83 385.48 184.83 372.91 173.26 381.83 184.83 385.48" style="fill:#08090b"/><polygon points="184.83 372.91 202.77 359.1 184.83 385.48 184.83 372.91" style="fill:#263947"/><polygon points="202.77 359.1 218.43 358.6 207.3 376.95 202.77 359.1" style="fill:#364e5d"/><polygon points="202.77 359.1 207.3 376.95 184.83 385.48 202.77 359.1" style="fill:#2b4255"/><polygon points="218.43 358.6 225.07 352.85 239.1 372.29 218.43 358.6" style="fill:#8c85c0"/><polygon points="218.43 358.6 239.1 372.29 207.3 376.95 218.43 358.6" style="fill:#3a5674"/><polygon points="207.3 376.95 215.45 409.24 239.1 372.29 207.3 376.95" style="fill:#4e7294"/><polygon points="184.83 385.48 186.37 411.61 207.3 376.95 184.83 385.48" style="fill:#304e69"/><polygon points="186.37 411.61 215.45 409.24 207.3 376.95 186.37 411.61" style="fill:#365b7a"/><polygon points="186.37 411.61 199.14 422.87 215.45 409.24 186.37 411.61" style="fill:#3e6584"/><polygon points="186.37 411.61 174.78 457.73 199.14 422.87 186.37 411.61" style="fill:#304b62"/><polygon points="199.14 422.87 215.45 409.24 222.67 457.73 199.14 422.87" style="fill:#5085ac"/><polygon points="174.78 457.73 199.14 422.87 222.67 457.73 174.78 457.73" style="fill:#3e6584"/><polygon points="215.45 409.24 241.33 382.46 239.1 372.29 215.45 409.24" style="fill:#201c3b"/><polygon points="241.33 382.46 284.5 398.98 239.1 372.29 241.33 382.46" style="fill:#181321"/><polygon points="241.33 382.46 247.09 440.3 284.5 398.98 241.33 382.46" style="fill:#aaa2d0"/><polygon points="247.09 440.3 251.85 507.53 284.5 398.98 247.09 440.3" style="fill:#c3bdde"/><polygon points="215.45 409.24 241.33 382.46 222.67 457.73 215.45 409.24" style="fill:#9a92c7"/><polygon points="241.33 382.46 247.09 440.3 222.67 457.73 241.33 382.46" style="fill:#aaa6d2"/><polygon points="142.6 422.87 184.83 385.48 186.37 411.61 142.6 422.87" style="fill:#524f7a"/><polygon points="142.6 422.87 174.78 457.73 186.37 411.61 142.6 422.87" style="fill:#827cb7"/><polygon points="142.6 422.87 139.01 489.88 174.78 457.73 142.6 422.87" style="fill:#978fc5"/><polygon points="174.78 457.73 222.67 457.73 197.91 503.76 174.78 457.73" style="fill:#2b4f65"/><polygon points="247.09 440.3 222.67 457.73 251.85 507.53 247.09 440.3" style="fill:#b1acd5"/><polygon points="174.78 457.73 168.16 524.38 197.91 503.76 174.78 457.73" style="fill:#1f4661"/><polygon points="197.91 503.76 223.2 532.91 222.67 457.73 197.91 503.76" style="fill:#528bb3"/><polygon points="151.11 318.89 148.61 354.93 142.6 334.21 151.11 318.89" style="fill:#111213"/><polygon points="148.61 354.93 146.41 378.08 142.6 334.21 148.61 354.93" style="fill:#050506"/><polygon points="142.6 334.21 98.09 379.2 146.41 378.08 142.6 334.21" style="fill:#0b0b0b"/><polygon points="143.23 409.24 98.09 379.2 146.41 378.08 143.23 409.24" style="fill:#080808"/><polygon points="67.16 388.41 107.08 427.81 143.23 409.24 67.16 388.41" style="fill:#0e1010"/><polygon points="67.16 388.41 75.62 508.98 107.08 427.81 67.16 388.41" style="fill:#131316"/><polygon points="143.23 409.24 142.6 422.87 107.08 427.81 143.23 409.24" style="fill:#090c0b"/><polygon points="139.01 489.88 142.6 422.87 107.08 427.81 139.01 489.88" style="fill:#151617"/><polygon points="107.08 427.81 139.01 489.88 109.46 524.38 107.08 427.81" style="fill:#121414"/><polygon points="75.62 508.98 109.46 524.38 107.08 427.81 75.62 508.98" style="fill:#131314"/><polygon points="142.6 334.21 98.09 379.2 100.74 356.7 142.6 334.21" style="fill:#151717"/><polygon points="100.74 356.7 67.16 388.41 98.09 379.2 100.74 356.7" style="fill:#19191d"/><polygon points="143.23 409.24 98.09 379.2 67.16 388.41 143.23 409.24" style="fill:#151618"/><polygon points="67.16 388.41 45.02 385.03 100.74 356.7 67.16 388.41" style="fill:#25282c"/><polygon points="45.02 385.03 18.64 451.6 23.36 395.9 45.02 385.03" style="fill:#2a2d32"/><polygon points="18.64 451.6 39.46 459.74 31.83 525.08 18.64 451.6" style="fill:#111011"/><polygon points="18.64 451.6 39.46 459.74 45.02 385.03 18.64 451.6" style="fill:#191b1f"/><polygon points="67.16 388.41 39.46 459.74 45.02 385.03 67.16 388.41" style="fill:#1c1f23"/><polygon points="23.36 395.9 7.54 419.48 18.64 451.6 23.36 395.9" style="fill:#27292f"/><polygon points="7.54 419.48 0 517.44 18.64 451.6 7.54 419.48" style="fill:#101112"/><polygon points="18.64 451.6 31.83 525.08 0 517.44 18.64 451.6" style="fill:#0e1011"/><polygon points="67.16 388.41 75.62 508.98 39.46 459.74 67.16 388.41" style="fill:#181a1c"/><polygon points="31.83 525.08 39.46 459.74 75.62 508.98 31.83 525.08" style="fill:#141619"/><polygon points="305.52 281.64 310.15 302.77 317.09 289.79 305.52 281.64" style="fill:#131615"/><polygon points="310.15 302.77 308.15 313.14 328.79 302.77 310.15 302.77" style="fill:#1e1f20"/><polygon points="317.09 289.79 310.15 302.77 328.79 302.77 317.09 289.79" style="fill:#181a1b"/><polygon points="296.64 354.93 315.04 325.22 308.15 313.14 296.64 354.93" style="fill:#20242b"/><polygon points="308.15 313.14 328.79 302.77 315.04 325.22 308.15 313.14" style="fill:#191c1e"/><polygon points="284.5 398.98 317.39 387.09 296.64 354.93 284.5 398.98" style="fill:#2a2934"/><polygon points="354.83 367.78 317.39 387.09 334.07 308.73 354.83 367.78" style="fill:#2b2e36"/><polygon points="345.71 316.36 334.07 308.73 354.83 367.78 345.71 316.36" style="fill:#222328"/><polygon points="328.79 302.77 334.07 308.73 315.04 325.22 328.79 302.77" style="fill:#1d2223"/><polygon points="296.64 354.93 315.04 325.22 317.39 387.09 296.64 354.93" style="fill:#22262b"/><polygon points="334.07 308.73 315.04 325.22 317.39 387.09 334.07 308.73" style="fill:#272c32"/><polygon points="260.44 379.69 284.5 398.98 239.1 372.29 260.44 379.69" style="fill:#b9b6db"/><polygon points="317.39 387.09 322.57 419.48 387.75 373.34 317.39 387.09" style="fill:#2f363d"/><polygon points="317.39 387.09 251.85 507.53 284.5 398.98 317.39 387.09" style="fill:#24262b"/><polygon points="317.39 387.09 322.57 419.48 251.85 507.53 317.39 387.09" style="fill:#262930"/><polygon points="300.94 548.11 387.75 373.34 322.57 419.48 300.94 548.11" style="fill:#2c2f39"/><polygon points="251.85 507.53 322.57 419.48 300.94 548.11 251.85 507.53" style="fill:#24262c"/><polygon points="317.39 387.09 354.83 367.78 387.75 373.34 317.39 387.09" style="fill:#1f1f25"/><polygon points="345.71 316.36 424.37 338.99 354.83 367.78 345.71 316.36" style="fill:#353743"/><polygon points="387.75 373.34 424.37 338.99 354.83 367.78 387.75 373.34" style="fill:#363842"/><polygon points="485.85 360.78 424.37 338.99 387.75 373.34 485.85 360.78" style="fill:#3d404a"/><polygon points="446.58 422.87 485.85 360.78 387.75 373.34 446.58 422.87" style="fill:#2d3037"/><polygon points="502.11 362.57 485.85 360.78 446.58 422.87 502.11 362.57" style="fill:#252b2f"/><polygon points="387.75 373.34 300.94 548.11 387.75 391.82 387.75 373.34" style="fill:#151410"/><polygon points="446.58 422.87 387.75 373.34 387.75 391.82 446.58 422.87" style="fill:#272c32"/><polygon points="502.11 362.57 539.78 460.73 446.58 422.87 502.11 362.57" style="fill:#141316"/><polygon points="446.58 422.87 428.34 530.92 387.75 391.82 446.58 422.87" style="fill:#1f1f25"/><polygon points="387.75 391.82 428.34 530.92 300.94 548.11 387.75 391.82" style="fill:#222328"/><polygon points="446.58 422.87 428.34 530.92 539.78 460.73 446.58 422.87" style="fill:#141417"/><polygon points="222.67 457.73 223.2 532.91 251.85 507.62 222.67 457.73" style="fill:#beb6da"/><polygon points="139.01 489.88 174.78 457.73 168.16 524.38 139.01 489.88" style="fill:#9f9bcc"/></svg>