<svg xmlns="http://www.w3.org/2000/svg" viewBox="0 0 604 548" shape-rendering="crispEdges"><title>tom</title><polygon points="189 278 213 268 234 286 189 278" style="fill:#3a251b"/><polygon points="193 224 213 238 210 226 193 224" style="fill:#5a3a30"/><polygon points="210 226 213 238 230 227 210 226" style="fill:#764b3f"/><polygon points="192 163 203 141 203 152 192 163" style="fill:#fbc9c3"/><polygon points="210 141 220 130 225 148 210 141" style="fill:#f9b7b2"/><polygon points="184 211 201 200 198 210 184 211" style="fill:#67292a"/><polygon points="213 210 201 200 198 210 213 210" style="fill:#502123"/><polygon points="230 202 215 199 213 210 230 202" style="fill:#9e4c52"/><polygon points="201 200 215 199 213 210 201 200" style="fill:#814144"/><polygon points="230 202 246 216 231 211 230 202" style="fill:#5f2528"/><polygon points="213 210 230 202 231 211 213 210" style="fill:#67292a"/><polygon points="193 224 188 215 210 226 193 224" style="fill:#693433"/><polygon points="218 221 210 226 230 227 218 221" style="fill:#9a4748"/><polygon points="188 215 184 211 198 210 188 215" style="fill:#44261d"/><polygon points="213 210 188 215 198 210 213 210" style="fill:#652a29"/><polygon points="218 221 188 215 210 226 218 221" style="fill:#b25258"/><polygon points="213 210 218 221 188 215 213 210" style="fill:#c66c75"/><polygon points="231 211 218 221 213 210 231 211" style="fill:#ecb3be"/><polygon points="239 221 231 211 218 221 239 221" style="fill:#dc8d92"/><polygon points="246 216 239 221 231 211 246 216" style="fill:#a54f4a"/><polygon points="230 227 239 221 218 221 230 227" style="fill:#c16965"/><polygon points="223 176 218 170 213 176 223 176" style="fill:#3d1c15"/><polygon points="208 175 213 176 218 170 208 175" style="fill:#3d1c17"/><polygon points="213 181 208 175 213 176 213 181" style="fill:#3e1914"/><polygon points="192 163 208 162 198 170 192 163" style="fill:#c17675"/><polygon points="198 170 205 170 208 162 198 170" style="fill:#9d5a51"/><polygon points="208 162 218 170 223 166 208 162" style="fill:#a85553"/><polygon points="192 163 195 173 198 170 192 163" style="fill:#7d4b44"/><polygon points="208 162 203 152 192 163 208 162" style="fill:#f7b9b4"/><polygon points="210 141 203 152 208 162 210 141" style="fill:#fde7ea"/><polygon points="225 148 218 154 210 141 225 148" style="fill:#f9bab6"/><polygon points="208 162 218 154 210 141 208 162" style="fill:#fde3de"/><polygon points="223 166 218 154 208 162 223 166" style="fill:#f9bbb8"/><polygon points="205 170 198 170 195 173 205 170" style="fill:#6a3637"/><polygon points="195 173 205 170 208 175 195 173" style="fill:#5d2c29"/><polygon points="213 181 195 173 208 175 213 181" style="fill:#411a15"/><polygon points="225 148 218 154 223 166 225 148" style="fill:#fbc8bf"/><polygon points="223 176 218 170 223 166 223 176" style="fill:#9a514f"/><polygon points="225 148 232 162 223 166 225 148" style="fill:#ed988a"/><polygon points="223 176 223 166 232 162 223 176" style="fill:#eca4a2"/><polygon points="234 178 232 162 223 176 234 178" style="fill:#d78680"/><polygon points="213 181 223 176 213 176 213 181" style="fill:#4a2118"/><polygon points="257 205 234 178 230 202 257 205" style="fill:#e9ada6"/><polygon points="215 199 234 178 230 202 215 199" style="fill:#b6725a"/><polygon points="246 216 230 202 249 213 246 216" style="fill:#542c27"/><polygon points="257 205 230 202 249 213 257 205" style="fill:#b5857a"/><polygon points="246 216 255 220 249 213 246 216" style="fill:#69352e"/><polygon points="181 193 198 178 189 200 181 193" style="fill:#d49c88"/><polygon points="195 173 198 178 213 181 195 173" style="fill:#5c2d27"/><polygon points="201 200 198 178 213 181 201 200" style="fill:#2f1815"/><polygon points="189 200 201 200 198 178 189 200" style="fill:#62463c"/><polygon points="184 211 189 200 201 200 184 211" style="fill:#603b34"/><polygon points="215 199 213 181 201 200 215 199" style="fill:#3b2520"/><polygon points="234 178 213 181 223 176 234 178" style="fill:#481d1a"/><polygon points="215 199 213 181 234 178 215 199" style="fill:#49211b"/><polygon points="208 175 205 170 218 170 208 175" style="fill:#4e221c"/><polygon points="208 162 205 170 218 170 208 162" style="fill:#b9675d"/><polygon points="203 141 203 152 210 141 203 141" style="fill:#fac1bf"/><polygon points="213 119 210 141 220 130 213 119" style="fill:#fce1e4"/><polygon points="203 141 213 119 210 141 203 141" style="fill:#fac4be"/><polygon points="220 120 213 119 220 130 220 120" style="fill:#fcd8d4"/><polygon points="203 141 205 131 213 119 203 141" style="fill:#ecb0ab"/><polygon points="230 227 213 238 234 232 230 227" style="fill:#905d53"/><polygon points="239 221 246 216 255 220 239 221" style="fill:#93453e"/><polygon points="230 227 234 232 239 221 230 227" style="fill:#c8867b"/><polygon points="255 220 239 221 234 232 255 220" style="fill:#d49386"/><polygon points="213 238 193 236 193 224 213 238" style="fill:#5b3028"/><polygon points="188 215 193 224 193 236 188 215" style="fill:#6e483e"/><polygon points="213 268 241 271 234 286 213 268" style="fill:#2b1916"/><polygon points="189 278 178 257 194 265 189 278" style="fill:#463125"/><polygon points="213 268 194 265 189 278 213 268" style="fill:#442d23"/><polygon points="213 238 184 247 208 259 213 238" style="fill:#c47f70"/><polygon points="234 249 213 238 208 259 234 249" style="fill:#d3978d"/><polygon points="194 265 208 259 184 247 194 265" style="fill:#946451"/><polygon points="178 257 184 247 194 265 178 257" style="fill:#553b30"/><polygon points="213 268 194 265 208 259 213 268" style="fill:#8a584b"/><polygon points="193 236 184 247 213 238 193 236" style="fill:#7c4f44"/><polygon points="234 249 213 238 234 232 234 249" style="fill:#ca8b81"/><polygon points="255 220 234 232 234 249 255 220" style="fill:#d3978d"/><polygon points="208 259 213 268 229 260 208 259" style="fill:#9c6959"/><polygon points="234 249 229 260 208 259 234 249" style="fill:#c88e7c"/><polygon points="241 271 229 260 213 268 241 271" style="fill:#7a4237"/><polygon points="234 249 241 271 229 260 234 249" style="fill:#966350"/><polygon points="203 141 193 147 192 163 203 141" style="fill:#b7867e"/><polygon points="174 157 177 147 193 147 174 157" style="fill:#9c6b62"/><polygon points="192 163 174 157 193 147 192 163" style="fill:#c98e7c"/><polygon points="184 211 179 209 189 200 184 211" style="fill:#62463c"/><polygon points="181 193 179 209 189 200 181 193" style="fill:#8f6856"/><polygon points="170 170 169 176 192 163 170 170" style="fill:#d59890"/><polygon points="174 157 170 170 192 163 174 157" style="fill:#d19e90"/><polygon points="168 185 181 193 170 206 168 185" style="fill:#8d5e53"/><polygon points="195 173 198 178 181 193 195 173" style="fill:#ba7460"/><polygon points="181 193 192 163 195 173 181 193" style="fill:#d2837f"/><polygon points="192 163 173 178 181 193 192 163" style="fill:#ca8b84"/><polygon points="188 237 187 227 193 236 188 237" style="fill:#6c443b"/><polygon points="188 215 182 224 187 227 188 215" style="fill:#8a5f55"/><polygon points="193 236 188 215 187 227 193 236" style="fill:#714e42"/><polygon points="184 247 188 237 193 236 184 247" style="fill:#6d473e"/><polygon points="184 211 182 224 188 215 184 211" style="fill:#805548"/><polygon points="187 227 188 237 182 224 187 227" style="fill:#734e45"/><polygon points="179 209 182 224 184 211 179 209" style="fill:#5d352d"/><polygon points="181 193 179 209 170 206 181 193" style="fill:#755349"/><polygon points="182 224 170 206 179 209 182 224" style="fill:#69493e"/><polygon points="184 247 182 224 188 237 184 247" style="fill:#6c4e42"/><polygon points="170 206 173 232 182 224 170 206" style="fill:#583c34"/><polygon points="184 247 182 224 173 232 184 247" style="fill:#55382a"/><polygon points="178 257 173 232 184 247 178 257" style="fill:#463124"/><polygon points="168 185 169 176 181 193 168 185" style="fill:#a66a63"/><polygon points="192 163 173 178 169 176 192 163" style="fill:#c98982"/><polygon points="169 176 173 178 181 193 169 176" style="fill:#af766a"/><polygon points="234 178 241 172 257 205 234 178" style="fill:#f3bab3"/><polygon points="232 162 241 172 234 178 232 162" style="fill:#b86a60"/><polygon points="234 249 250 242 241 271 234 249" style="fill:#a56c5b"/><polygon points="255 220 234 249 250 242 255 220" style="fill:#ca8b81"/><polygon points="249 213 257 205 255 220 249 213" style="fill:#d49386"/><polygon points="234 286 253 283 241 271 234 286" style="fill:#2b1815"/><polygon points="250 242 260 265 241 271 250 242" style="fill:#7a543b"/><polygon points="255 220 265 239 250 242 255 220" style="fill:#b47768"/><polygon points="241 271 260 265 253 283 241 271" style="fill:#372319"/><polygon points="250 242 265 239 260 265 250 242" style="fill:#6e4b37"/><polygon points="253 283 275 280 260 265 253 283" style="fill:#301a19"/><polygon points="265 239 279 260 260 265 265 239" style="fill:#5c3830"/><polygon points="275 280 260 265 279 260 275 280" style="fill:#362219"/><polygon points="265 239 295 230 279 260 265 239" style="fill:#5a312b"/><polygon points="275 280 308 268 279 260 275 280" style="fill:#321e1a"/><polygon points="255 220 281 213 265 239 255 220" style="fill:#a86c62"/><polygon points="295 230 281 213 265 239 295 230" style="fill:#72443c"/><polygon points="279 260 313 245 295 230 279 260" style="fill:#4f2d27"/><polygon points="308 268 279 260 313 245 308 268" style="fill:#38231c"/><polygon points="257 205 255 220 281 213 257 205" style="fill:#b47768"/><polygon points="157 146 152 128 169 147 157 146" style="fill:#d8d0d1"/><polygon points="156 117 152 128 172 115 156 117" style="fill:#7f7966"/><polygon points="169 147 177 147 179 131 169 147" style="fill:#b8afa2"/><polygon points="172 115 177 114 179 131 172 115" style="fill:#8c876e"/><polygon points="152 128 179 131 169 147 152 128" style="fill:#ac9d8e"/><polygon points="172 115 152 128 179 131 172 115" style="fill:#93866c"/><polygon points="177 114 193 115 182 123 177 114" style="fill:#614843"/><polygon points="177 147 193 139 193 147 177 147" style="fill:#91726f"/><polygon points="203 141 193 139 193 147 203 141" style="fill:#876467"/><polygon points="187 133 183 131 190 132 187 133" style="fill:#857c93"/><polygon points="187 133 198 133 190 132 187 133" style="fill:#72697e"/><polygon points="183 124 179 131 183 131 183 124" style="fill:#6f667b"/><polygon points="187 133 179 131 183 131 187 133" style="fill:#6f667b"/><polygon points="177 114 179 131 182 123 177 114" style="fill:#624e40"/><polygon points="177 147 187 133 179 131 177 147" style="fill:#593c34"/><polygon points="193 139 187 133 177 147 193 139" style="fill:#6e524d"/><polygon points="203 141 205 131 198 133 203 141" style="fill:#71524a"/><polygon points="193 139 187 133 203 141 193 139" style="fill:#875a53"/><polygon points="198 133 187 133 203 141 198 133" style="fill:#755449"/><polygon points="193 123 193 115 190 123 193 123" style="fill:#573f3f"/><polygon points="208 119 193 115 193 123 208 119" style="fill:#644b49"/><polygon points="205 131 198 133 204 129 205 131" style="fill:#584143"/><polygon points="193 123 208 119 205 129 193 123" style="fill:#503939"/><polygon points="205 131 205 129 208 119 205 131" style="fill:#745852"/><polygon points="208 119 213 119 205 131 208 119" style="fill:#503a34"/><polygon points="213 119 211 108 198 105 213 119" style="fill:#543530"/><polygon points="208 119 213 119 198 105 208 119" style="fill:#543731"/><polygon points="193 115 198 105 208 119 193 115" style="fill:#5d3b30"/><polygon points="193 115 178 108 198 105 193 115" style="fill:#5b3932"/><polygon points="177 114 178 108 193 115 177 114" style="fill:#533c31"/><polygon points="178 108 178 104 198 105 178 108" style="fill:#634a41"/><polygon points="195 101 178 104 198 105 195 101" style="fill:#725952"/><polygon points="178 104 181 97 195 101 178 104" style="fill:#ae887d"/><polygon points="195 101 211 108 198 105 195 101" style="fill:#725d4c"/><polygon points="213 119 221 108 211 108 213 119" style="fill:#c4807c"/><polygon points="218 101 211 108 221 108 218 101" style="fill:#c68171"/><polygon points="228 117 221 108 213 119 228 117" style="fill:#fac1b9"/><polygon points="195 101 211 108 218 101 195 101" style="fill:#8d5a4b"/><polygon points="225 148 220 130 228 117 225 148" style="fill:#593c34"/><polygon points="240 152 225 148 228 117 240 152" style="fill:#6e524d"/><polygon points="247 136 276 153 260 153 247 136" style="fill:#ac9491"/><polygon points="228 117 240 152 247 136 228 117" style="fill:#875a53"/><polygon points="260 153 240 152 247 136 260 153" style="fill:#a1817a"/><polygon points="228 117 239 117 247 136 228 117" style="fill:#614843"/><polygon points="276 153 281 143 247 136 276 153" style="fill:#9a7982"/><polygon points="239 117 247 136 249 133 239 117" style="fill:#6e524d"/><polygon points="253 126 250 117 249 133 253 126" style="fill:#6e524d"/><polygon points="250 117 239 117 249 133 250 117" style="fill:#614843"/><polygon points="247 136 249 133 256 136 247 136" style="fill:#664e39"/><polygon points="274 135 268 137 281 143 274 135" style="fill:#9a7982"/><polygon points="247 136 256 136 281 143 247 136" style="fill:#ac9491"/><polygon points="276 134 281 143 274 135 276 134" style="fill:#91726f"/><polygon points="258 125 267 120 263 126 258 125" style="fill:#857885"/><polygon points="267 120 273 130 263 126 267 120" style="fill:#9a7982"/><polygon points="284 127 267 120 273 130 284 127" style="fill:#91726f"/><polygon points="273 130 276 134 284 127 273 130" style="fill:#9a7982"/><polygon points="276 134 284 127 281 143 276 134" style="fill:#99847b"/><polygon points="250 117 258 125 267 120 250 117" style="fill:#776057"/><polygon points="253 126 258 125 250 117 253 126" style="fill:#614843"/><polygon points="232 162 225 148 240 152 232 162" style="fill:#dea1a1"/><polygon points="241 172 232 162 240 152 241 172" style="fill:#d28a7c"/><polygon points="260 153 240 152 241 172 260 153" style="fill:#f6c8c4"/><polygon points="266 192 241 172 260 153 266 192" style="fill:#ecb8ad"/><polygon points="257 205 266 192 241 172 257 205" style="fill:#d49386"/><polygon points="281 213 266 192 257 205 281 213" style="fill:#c88b7e"/><polygon points="283 172 260 153 266 192 283 172" style="fill:#f7c0c2"/><polygon points="276 153 283 172 260 153 276 153" style="fill:#e9bdb4"/><polygon points="281 213 283 172 266 192 281 213" style="fill:#c37a79"/><polygon points="281 143 276 153 301 150 281 143" style="fill:#d6aea3"/><polygon points="283 172 276 153 300 157 283 172" style="fill:#f2cdc2"/><polygon points="301 150 276 153 300 157 301 150" style="fill:#e5b6a8"/><polygon points="283 172 316 160 300 157 283 172" style="fill:#ebbcb1"/><polygon points="301 150 300 157 316 160 301 150" style="fill:#edb5aa"/><polygon points="281 213 305 180 283 172 281 213" style="fill:#c17471"/><polygon points="316 160 283 172 305 180 316 160" style="fill:#d39484"/><polygon points="308 268 333 255 313 245 308 268" style="fill:#37241a"/><polygon points="295 230 319 216 313 245 295 230" style="fill:#4f2c26"/><polygon points="313 245 337 224 333 255 313 245" style="fill:#3d241a"/><polygon points="295 230 281 213 313 198 295 230" style="fill:#7a4b44"/><polygon points="313 245 319 216 337 224 313 245" style="fill:#422820"/><polygon points="295 230 319 216 313 198 295 230" style="fill:#5d332d"/><polygon points="305 180 313 198 281 213 305 180" style="fill:#985e54"/><polygon points="333 255 348 214 337 224 333 255" style="fill:#492e23"/><polygon points="319 216 346 196 337 224 319 216" style="fill:#45271e"/><polygon points="348 214 346 196 337 224 348 214" style="fill:#472925"/><polygon points="319 216 340 175 346 196 319 216" style="fill:#5f3b35"/><polygon points="348 214 359 175 346 196 348 214" style="fill:#583730"/><polygon points="340 175 348 157 354 169 340 175" style="fill:#77534d"/><polygon points="359 175 346 196 340 175 359 175" style="fill:#623e34"/><polygon points="354 169 359 175 340 175 354 169" style="fill:#502d28"/><polygon points="319 216 313 198 340 175 319 216" style="fill:#6f483f"/><polygon points="305 180 319 175 313 198 305 180" style="fill:#b47768"/><polygon points="340 175 319 175 313 198 340 175" style="fill:#956351"/><polygon points="316 160 305 180 319 175 316 160" style="fill:#c88b7e"/><polygon points="348 157 319 175 340 175 348 157" style="fill:#a86c62"/><polygon points="316 160 348 157 319 175 316 160" style="fill:#b67a68"/><polygon points="228 117 234 105 239 117 228 117" style="fill:#af5b4d"/><polygon points="250 117 280 109 234 105 250 117" style="fill:#6f3d34"/><polygon points="239 117 250 117 234 105 239 117" style="fill:#693027"/><polygon points="280 109 250 117 267 120 280 109" style="fill:#a87570"/><polygon points="284 127 267 120 280 109 284 127" style="fill:#bd928a"/><polygon points="234 105 264 100 280 109 234 105" style="fill:#6a5348"/><polygon points="281 143 288 132 284 127 281 143" style="fill:#836b73"/><polygon points="295 133 288 132 288 136 295 133" style="fill:#694042"/><polygon points="281 143 288 136 288 132 281 143" style="fill:#5e3e43"/><polygon points="305 134 295 133 288 136 305 134" style="fill:#46373d"/><polygon points="316 136 288 136 305 134 316 136" style="fill:#40363a"/><polygon points="301 150 340 147 316 160 301 150" style="fill:#daa395"/><polygon points="348 157 340 147 316 160 348 157" style="fill:#b9766c"/><polygon points="301 150 288 136 281 143 301 150" style="fill:#b97d6f"/><polygon points="316 136 301 150 288 136 316 136" style="fill:#a46a5c"/><polygon points="340 147 316 136 301 150 340 147" style="fill:#c5907f"/><polygon points="346 137 316 136 340 147 346 137" style="fill:#bc7e73"/><polygon points="305 134 316 136 344 135 305 134" style="fill:#46373d"/><polygon points="346 137 344 135 316 136 346 137" style="fill:#5b4543"/><polygon points="221 108 234 105 228 117 221 108" style="fill:#e5a291"/><polygon points="264 100 297 110 280 109 264 100" style="fill:#a27672"/><polygon points="284 127 302 125 280 109 284 127" style="fill:#8f5e55"/><polygon points="297 110 280 109 302 125 297 110" style="fill:#a37367"/><polygon points="288 132 284 127 302 125 288 132" style="fill:#7e4e47"/><polygon points="295 133 288 132 302 125 295 133" style="fill:#825348"/><polygon points="305 134 302 125 295 133 305 134" style="fill:#784643"/><polygon points="181 97 187 70 192 90 181 97" style="fill:#cc9c91"/><polygon points="218 101 236 88 221 108 218 101" style="fill:#d28677"/><polygon points="234 105 236 88 221 108 234 105" style="fill:#ca887b"/><polygon points="264 100 248 94 234 105 264 100" style="fill:#bc7b6f"/><polygon points="236 88 248 94 234 105 236 88" style="fill:#df988c"/><polygon points="264 100 280 94 297 110 264 100" style="fill:#e8b5aa"/><polygon points="305 134 302 125 309 123 305 134" style="fill:#8a594e"/><polygon points="297 110 309 123 302 125 297 110" style="fill:#996961"/><polygon points="195 101 192 90 218 101 195 101" style="fill:#a9796d"/><polygon points="181 97 192 90 195 101 181 97" style="fill:#c39484"/><polygon points="218 101 192 90 216 91 218 101" style="fill:#d89b8a"/><polygon points="236 88 216 91 218 101 236 88" style="fill:#e7a498"/><polygon points="261 35 288 25 275 52 261 35" style="fill:#fffefd"/><polygon points="308 35 288 25 275 52 308 35" style="fill:#fff"/><polygon points="187 70 204 42 208 67 187 70" style="fill:#e8b5aa"/><polygon points="229 25 204 42 228 45 229 25" style="fill:#fdded7"/><polygon points="208 67 228 45 204 42 208 67" style="fill:#fdd9ce"/><polygon points="187 70 208 67 192 90 187 70" style="fill:#e0ae9d"/><polygon points="216 91 208 67 192 90 216 91" style="fill:#f2bdad"/><polygon points="208 67 236 63 216 91 208 67" style="fill:#fbcdbc"/><polygon points="228 45 236 63 208 67 228 45" style="fill:#fcd6cb"/><polygon points="236 88 236 63 216 91 236 88" style="fill:#fbc9be"/><polygon points="248 94 264 100 280 94 248 94" style="fill:#e2ada8"/><polygon points="236 88 280 94 248 94 236 88" style="fill:#e6a49a"/><polygon points="344 135 305 134 328 122 344 135" style="fill:#ae7169"/><polygon points="309 123 328 122 305 134 309 123" style="fill:#b57f77"/><polygon points="344 135 342 108 328 122 344 135" style="fill:#9e665b"/><polygon points="309 123 305 85 328 103 309 123" style="fill:#c38775"/><polygon points="328 122 328 103 309 123 328 122" style="fill:#c08178"/><polygon points="342 108 328 103 328 122 342 108" style="fill:#b2766c"/><polygon points="297 110 305 85 309 123 297 110" style="fill:#d19081"/><polygon points="280 94 305 85 297 110 280 94" style="fill:#e6ad9f"/><polygon points="236 88 267 62 280 94 236 88" style="fill:#fcd9d6"/><polygon points="236 63 267 62 236 88 236 63" style="fill:#fcd5c9"/><polygon points="305 85 297 62 280 94 305 85" style="fill:#f8c6ba"/><polygon points="267 62 280 94 297 62 267 62" style="fill:#fbd5cf"/><polygon points="236 63 228 45 261 35 236 63" style="fill:#fddfd1"/><polygon points="267 62 275 52 261 35 267 62" style="fill:#fef1f1"/><polygon points="236 63 261 35 267 62 236 63" style="fill:#fde5e0"/><polygon points="228 45 229 25 261 35 228 45" style="fill:#feebe0"/><polygon points="267 62 275 52 297 62 267 62" style="fill:#fee9e6"/><polygon points="308 35 275 52 297 62 308 35" style="fill:#feefef"/><polygon points="344 135 348 134 346 137 344 135" style="fill:#372a26"/><polygon points="367 136 348 134 349 139 367 136" style="fill:#5d6180"/><polygon points="346 137 349 139 348 134 346 137" style="fill:#33272b"/><polygon points="367 136 367 141 349 139 367 136" style="fill:#3d475f"/><polygon points="372 139 367 136 367 141 372 139" style="fill:#5d5765"/><polygon points="340 147 346 137 348 157 340 147" style="fill:#59403a"/><polygon points="349 139 346 137 348 157 349 139" style="fill:#2d1d18"/><polygon points="367 141 357 157 349 139 367 141" style="fill:#0f0e0f"/><polygon points="348 157 349 139 357 157 348 157" style="fill:#171314"/><polygon points="354 169 348 157 357 157 354 169" style="fill:#352821"/><polygon points="359 175 354 169 357 157 359 175" style="fill:#40281f"/><polygon points="344 135 348 134 342 108 344 135" style="fill:#643c35"/><polygon points="350 87 342 108 354 109 350 87" style="fill:#855c4f"/><polygon points="348 134 354 109 342 108 348 134" style="fill:#6e4941"/><polygon points="367 136 367 109 348 134 367 136" style="fill:#201615"/><polygon points="354 109 367 109 348 134 354 109" style="fill:#3e2f2c"/><polygon points="367 136 382 120 367 109 367 136" style="fill:#262320"/><polygon points="380 92 367 109 382 120 380 92" style="fill:#231d1c"/><polygon points="354 109 364 80 367 109 354 109" style="fill:#3d2e2b"/><polygon points="380 92 367 109 364 80 380 92" style="fill:#4c4343"/><polygon points="350 87 364 80 354 109 350 87" style="fill:#715953"/><polygon points="328 103 350 87 342 108 328 103" style="fill:#a87465"/><polygon points="305 85 328 69 328 103 305 85" style="fill:#eab1a1"/><polygon points="350 87 328 69 328 103 350 87" style="fill:#e7ae9d"/><polygon points="364 80 349 52 350 87 364 80" style="fill:#b19285"/><polygon points="380 92 367 56 364 80 380 92" style="fill:#453f30"/><polygon points="349 52 364 80 367 56 349 52" style="fill:#a68982"/><polygon points="328 69 349 52 350 87 328 69" style="fill:#f0c3b3"/><polygon points="297 62 328 69 305 85 297 62" style="fill:#f9c6b3"/><polygon points="308 35 297 62 328 69 308 35" style="fill:#fdd9ca"/><polygon points="349 52 308 35 328 69 349 52" style="fill:#fcd8ce"/><polygon points="367 56 341 31 349 52 367 56" style="fill:#bda99e"/><polygon points="308 35 323 21 341 31 308 35" style="fill:#feebe4"/><polygon points="349 52 341 31 308 35 349 52" style="fill:#fee4d6"/><polygon points="229 25 248 28 261 35 229 25" style="fill:#fde4d9"/><polygon points="288 25 248 28 261 35 288 25" style="fill:#fffaf7"/><polygon points="288 25 323 21 308 35 288 25" style="fill:#fff8f7"/><polygon points="229 25 224 26 248 6 229 25" style="fill:#8b705f"/><polygon points="273 2 248 6 248 14 273 2" style="fill:#a2937b"/><polygon points="229 25 248 6 248 14 229 25" style="fill:#8e806c"/><polygon points="248 28 248 14 229 25 248 28" style="fill:#ad8274"/><polygon points="273 2 248 28 248 14 273 2" style="fill:#b7a295"/><polygon points="288 25 280 10 308 0 288 25" style="fill:#b09583"/><polygon points="273 2 308 0 280 10 273 2" style="fill:#aa9176"/><polygon points="288 25 280 10 268 17 288 25" style="fill:#b99d8c"/><polygon points="273 2 248 28 268 17 273 2" style="fill:#af9b91"/><polygon points="280 10 273 2 268 17 280 10" style="fill:#b09987"/><polygon points="248 28 268 17 288 25 248 28" style="fill:#ccab99"/><polygon points="288 25 304 19 323 21 288 25" style="fill:#fcd2c1"/><polygon points="308 0 333 8 308 12 308 0" style="fill:#826651"/><polygon points="288 25 304 19 308 12 288 25" style="fill:#c49983"/><polygon points="308 0 288 25 308 12 308 0" style="fill:#b08871"/><polygon points="304 19 308 12 333 8 304 19" style="fill:#a28064"/><polygon points="323 21 333 8 304 19 323 21" style="fill:#a9775e"/><polygon points="323 21 333 8 341 31 323 21" style="fill:#be987b"/><polygon points="333 8 354 21 341 31 333 8" style="fill:#8c6e59"/><polygon points="367 56 354 21 341 31 367 56" style="fill:#b19278"/><polygon points="213 119 220 120 225 119 213 119" style="fill:#503939"/><polygon points="228 117 213 119 225 119 228 117" style="fill:#6e524d"/><polygon points="225 119 228 117 220 130 225 119" style="fill:#fcd7d7"/><polygon points="220 120 225 119 220 130 220 120" style="fill:#fef2f2"/><polygon points="354 21 372 33 367 56 354 21" style="fill:#857164"/><polygon points="380 92 387 66 367 56 380 92" style="fill:#8e867c"/><polygon points="372 33 387 66 367 56 372 33" style="fill:#b9aa99"/><polygon points="380 92 392 98 387 66 380 92" style="fill:#6d6555"/><polygon points="372 33 387 66 389 52 372 33" style="fill:#9e8f7e"/><polygon points="402 88 389 52 387 66 402 88" style="fill:#b3a799"/><polygon points="392 98 402 88 387 66 392 98" style="fill:#7c7c75"/><polygon points="380 92 382 120 392 98 380 92" style="fill:#393c3f"/><polygon points="402 88 392 98 402 131 402 88" style="fill:#4b4940"/><polygon points="382 120 392 98 402 131 382 120" style="fill:#302726"/><polygon points="367 136 372 139 382 120 367 136" style="fill:#141111"/><polygon points="402 131 382 120 372 139 402 131" style="fill:#1e1717"/><polygon points="399 157 402 131 372 139 399 157" style="fill:#111210"/><polygon points="193 115 190 123 182 123 193 115" style="fill:#644b49"/><polygon points="258 129 257 131 260 131 258 129" style="fill:#1d1b1b"/><polygon points="260 133 257 131 260 131 260 133" style="fill:#231f1f"/><polygon points="258 129 258 126 263 131 258 129" style="fill:#362d31"/><polygon points="260 131 263 131 258 129 260 131" style="fill:#362d26"/><polygon points="261 134 263 131 260 131 261 134" style="fill:#403332"/><polygon points="260 133 260 131 261 134 260 133" style="fill:#362d26"/><polygon points="257 131 256 135 260 133 257 131" style="fill:#222423"/><polygon points="260 135 261 134 260 133 260 135" style="fill:#483d35"/><polygon points="256 135 260 133 260 135 256 135" style="fill:#4d3e38"/><polygon points="258 129 256 129 258 126 258 129" style="fill:#232321"/><polygon points="257 131 256 129 258 129 257 131" style="fill:#272424"/><polygon points="256 135 253 134 257 131 256 135" style="fill:#2d2929"/><polygon points="260 135 262 136 261 134 260 135" style="fill:#857c93"/><polygon points="263 131 261 134 262 136 263 131" style="fill:#6f667b"/><polygon points="263 131 263 126 258 126 263 131" style="fill:#403131"/><polygon points="262 136 268 137 263 131 262 136" style="fill:#72697e"/><polygon points="263 131 263 126 268 137 263 131" style="fill:#72697e"/><polygon points="271 131 263 126 268 137 271 131" style="fill:#857c93"/><polygon points="274 135 271 131 268 137 274 135" style="fill:#90888a"/><polygon points="263 126 273 130 271 131 263 126" style="fill:#776060"/><polygon points="274 135 271 131 273 130 274 135" style="fill:#6b5156"/><polygon points="186 128 189 126 190 129 186 128" style="fill:#1e1e1f"/><polygon points="187 125 186 128 189 126 187 125" style="fill:#1d1b1b"/><polygon points="190 129 187 129 186 128 190 129" style="fill:#1c1d1d"/><polygon points="189 126 190 127 190 129 189 126" style="fill:#242023"/><polygon points="187 129 183 131 189 130 187 129" style="fill:#292723"/><polygon points="186 128 183 131 187 129 186 128" style="fill:#232321"/><polygon points="193 128 190 129 189 130 193 128" style="fill:#3a383a"/><polygon points="187 129 190 129 189 130 187 129" style="fill:#222423"/><polygon points="191 126 190 127 193 128 191 126" style="fill:#473c3d"/><polygon points="190 129 190 127 193 128 190 129" style="fill:#3e393a"/><polygon points="187 125 190 123 189 126 187 125" style="fill:#2e2629"/><polygon points="190 127 189 126 190 123 190 127" style="fill:#292427"/><polygon points="191 126 190 127 190 123 191 126" style="fill:#362d31"/><polygon points="193 123 190 123 191 126 193 123" style="fill:#403131"/><polygon points="187 125 183 124 190 123 187 125" style="fill:#372e31"/><polygon points="183 124 187 125 186 128 183 124" style="fill:#2d2929"/><polygon points="183 131 186 128 183 124 183 131" style="fill:#231f1f"/><polygon points="183 131 189 130 190 132 183 131" style="fill:#33322a"/><polygon points="193 128 191 126 193 123 193 128" style="fill:#4b3f41"/><polygon points="189 130 193 128 190 132 189 130" style="fill:#464341"/><polygon points="273 130 276 134 274 135 273 130" style="fill:#6f5c6a"/><polygon points="253 134 256 136 256 135 253 134" style="fill:#72697e"/><polygon points="260 135 256 136 256 135 260 135" style="fill:#857c93"/><polygon points="262 136 256 136 260 135 262 136" style="fill:#6f667b"/><polygon points="268 137 262 136 256 136 268 137" style="fill:#725354"/><polygon points="281 143 268 137 256 136 281 143" style="fill:#a3887d"/><polygon points="253 127 249 133 253 134 253 127" style="fill:#6f667b"/><polygon points="253 127 258 126 256 129 253 127" style="fill:#2d2929"/><polygon points="257 131 253 134 256 129 257 131" style="fill:#232321"/><polygon points="253 127 256 129 253 134 253 127" style="fill:#231f1f"/><polygon points="249 133 253 134 256 136 249 133" style="fill:#614843"/><polygon points="249 133 253 126 253 127 249 133" style="fill:#483d35"/><polygon points="253 127 258 126 253 126 253 127" style="fill:#403131"/><polygon points="253 126 258 125 258 126 253 126" style="fill:#473833"/><polygon points="258 125 263 126 258 126 258 125" style="fill:#593c34"/><polygon points="193 123 204 129 205 129 193 123" style="fill:#372e31"/><polygon points="205 131 204 129 205 129 205 131" style="fill:#1d1b1b"/><polygon points="179 131 182 123 183 124 179 131" style="fill:#503939"/><polygon points="182 123 183 124 190 123 182 123" style="fill:#403131"/><polygon points="190 132 193 128 198 133 190 132" style="fill:#90888a"/><polygon points="193 123 193 128 198 133 193 123" style="fill:#857c93"/><polygon points="204 129 193 123 198 133 204 129" style="fill:#6f667b"/><polygon points="367 141 378 154 372 139 367 141" style="fill:#292a2b"/><polygon points="373 155 378 154 367 141 373 155" style="fill:#1f1817"/><polygon points="372 139 378 154 387 153 372 139" style="fill:#20130f"/><polygon points="399 157 387 153 372 139 399 157" style="fill:#1c120e"/><polygon points="397 162 387 153 399 157 397 162" style="fill:#3a1a10"/><polygon points="361 178 369 172 374 178 361 178" style="fill:#361614"/><polygon points="367 182 361 178 374 178 367 182" style="fill:#401515"/><polygon points="361 187 361 178 367 182 361 187" style="fill:#4c1d15"/><polygon points="356 199 361 187 361 194 356 199" style="fill:#4a1f1c"/><polygon points="374 178 379 183 367 182 374 178" style="fill:#52211b"/><polygon points="372 188 379 183 367 182 372 188" style="fill:#57201e"/><polygon points="361 187 367 182 372 188 361 187" style="fill:#50211f"/><polygon points="361 194 372 188 361 187 361 194" style="fill:#5e2e29"/><polygon points="348 214 356 199 359 175 348 214" style="fill:#714f43"/><polygon points="361 187 356 199 359 175 361 187" style="fill:#90685c"/><polygon points="361 178 359 175 361 187 361 178" style="fill:#734237"/><polygon points="369 172 364 162 361 178 369 172" style="fill:#522b23"/><polygon points="359 175 361 178 364 162 359 175" style="fill:#4b291e"/><polygon points="357 157 367 141 373 155 357 157" style="fill:#18140f"/><polygon points="364 162 357 157 359 175 364 162" style="fill:#3a1d14"/><polygon points="373 155 364 162 357 157 373 155" style="fill:#2d1914"/><polygon points="372 188 379 183 378 193 372 188" style="fill:#813f46"/><polygon points="370 196 372 188 378 193 370 196" style="fill:#8e484b"/><polygon points="361 194 372 188 370 196 361 194" style="fill:#98686a"/><polygon points="356 199 370 196 361 194 356 199" style="fill:#cea4a5"/><polygon points="360 211 356 199 348 214 360 211" style="fill:#a5827e"/><polygon points="364 220 360 211 348 214 364 220" style="fill:#905b5e"/><polygon points="351 220 348 214 364 220 351 220" style="fill:#5d2f27"/><polygon points="360 211 369 204 364 220 360 211" style="fill:#8b5956"/><polygon points="356 199 369 204 360 211 356 199" style="fill:#b28a80"/><polygon points="370 196 369 204 356 199 370 196" style="fill:#bb8886"/><polygon points="364 220 370 214 369 204 364 220" style="fill:#6c473b"/><polygon points="379 183 383 189 386 175 379 183" style="fill:#9e6a64"/><polygon points="378 193 379 183 383 189 378 193" style="fill:#c08e91"/><polygon points="379 198 383 189 378 193 379 198" style="fill:#b67d73"/><polygon points="370 196 379 198 378 193 370 196" style="fill:#d8acaf"/><polygon points="369 204 379 198 370 196 369 204" style="fill:#c08e91"/><polygon points="370 214 376 206 369 204 370 214" style="fill:#ad8185"/><polygon points="379 198 376 206 369 204 379 198" style="fill:#976c64"/><polygon points="383 189 385 193 379 198 383 189" style="fill:#6d3326"/><polygon points="389 182 383 189 386 175 389 182" style="fill:#4f1c19"/><polygon points="385 193 383 189 389 182 385 193" style="fill:#713937"/><polygon points="395 166 389 182 391 185 395 166" style="fill:#734045"/><polygon points="385 193 391 185 389 182 385 193" style="fill:#916561"/><polygon points="369 172 364 162 378 162 369 172" style="fill:#6a3c39"/><polygon points="373 155 364 162 378 162 373 155" style="fill:#905e63"/><polygon points="378 154 373 155 378 162 378 154" style="fill:#bd8c94"/><polygon points="387 153 378 162 378 154 387 153" style="fill:#daa3aa"/><polygon points="397 162 378 162 387 153 397 162" style="fill:#d29192"/><polygon points="395 166 397 162 378 162 395 166" style="fill:#905e5e"/><polygon points="386 175 395 166 389 182 386 175" style="fill:#4b1918"/><polygon points="374 178 378 162 369 172 374 178" style="fill:#4c1b19"/><polygon points="386 175 374 178 379 183 386 175" style="fill:#7b4a41"/><polygon points="378 162 386 175 374 178 378 162" style="fill:#551e1f"/><polygon points="395 166 386 175 378 162 395 166" style="fill:#451813"/><polygon points="395 166 397 162 391 185 395 166" style="fill:#5e3c3b"/><polygon points="370 214 364 220 360 239 370 214" style="fill:#221a13"/><polygon points="359 224 364 220 360 239 359 224" style="fill:#1e180f"/><polygon points="351 220 364 220 359 224 351 220" style="fill:#492a26"/><polygon points="360 239 359 224 351 220 360 239" style="fill:#483028"/><polygon points="333 255 348 237 348 214 333 255" style="fill:#482924"/><polygon points="351 220 348 214 348 237 351 220" style="fill:#452423"/><polygon points="351 220 360 239 348 237 351 220" style="fill:#452c23"/><polygon points="348 237 360 239 333 255 348 237" style="fill:#523029"/><polygon points="358 267 349 257 360 239 358 267" style="fill:#4e362b"/><polygon points="333 255 360 239 349 257 333 255" style="fill:#57342b"/><polygon points="358 267 355 286 359 273 358 267" style="fill:#442d2d"/><polygon points="349 257 337 309 358 267 349 257" style="fill:#7e5650"/><polygon points="355 286 358 267 337 309 355 286" style="fill:#6a4d40"/><polygon points="337 309 333 255 349 257 337 309" style="fill:#785045"/><polygon points="317 287 333 255 337 309 317 287" style="fill:#754d47"/><polygon points="308 268 317 287 333 255 308 268" style="fill:#7a4b44"/><polygon points="275 280 298 285 308 268 275 280" style="fill:#37201e"/><polygon points="298 285 308 268 317 287 298 285" style="fill:#6f483f"/><polygon points="306 312 317 287 337 309 306 312" style="fill:#7b584b"/><polygon points="306 312 289 353 337 309 306 312" style="fill:#78514d"/><polygon points="275 280 263 284 298 285 275 280" style="fill:#311d17"/><polygon points="306 312 298 285 317 287 306 312" style="fill:#805548"/><polygon points="253 283 263 284 275 280 253 283" style="fill:#331d1c"/><polygon points="234 286 250 287 253 283 234 286" style="fill:#2f1a1a"/><polygon points="263 284 250 287 253 283 263 284" style="fill:#2a1814"/><polygon points="189 278 216 286 234 286 189 278" style="fill:#241510"/><polygon points="234 286 229 289 250 287 234 286" style="fill:#241615"/><polygon points="250 287 263 284 298 285 250 287" style="fill:#39201e"/><polygon points="216 286 221 304 229 289 216 286" style="fill:#39201e"/><polygon points="216 286 234 286 229 289 216 286" style="fill:#241614"/><polygon points="221 304 230 328 229 289 221 304" style="fill:#392c24"/><polygon points="230 328 229 289 250 287 230 328" style="fill:#382421"/><polygon points="230 328 266 299 250 287 230 328" style="fill:#3c2624"/><polygon points="230 328 267 359 266 299 230 328" style="fill:#3c2723"/><polygon points="282 359 267 359 266 299 282 359" style="fill:#44292b"/><polygon points="282 359 289 353 266 299 282 359" style="fill:#523832"/><polygon points="289 353 306 312 298 285 289 353" style="fill:#77534d"/><polygon points="289 353 298 285 266 299 289 353" style="fill:#4e2e2c"/><polygon points="250 287 298 285 266 299 250 287" style="fill:#3d2322"/><polygon points="221 304 215 319 230 328 221 304" style="fill:#181519"/><polygon points="230 328 215 319 267 359 230 328" style="fill:#171212"/><polygon points="215 319 232 345 267 359 215 319" style="fill:#252032"/><polygon points="232 345 213 355 215 319 232 345" style="fill:#2d2a37"/><polygon points="207 409 225 370 210 378 207 409" style="fill:#211f32"/><polygon points="213 355 225 370 210 378 213 355" style="fill:#14131c"/><polygon points="267 359 232 345 213 355 267 359" style="fill:#312a46"/><polygon points="225 370 267 359 213 355 225 370" style="fill:#302a47"/><polygon points="207 409 237 382 225 370 207 409" style="fill:#2a243e"/><polygon points="267 359 249 373 225 370 267 359" style="fill:#3d3754"/><polygon points="207 409 207 423 237 382 207 409" style="fill:#352e4a"/><polygon points="303 372 324 380 289 353 303 372" style="fill:#9c95c9"/><polygon points="324 380 361 355 349 399 324 380" style="fill:#a69ccc"/><polygon points="337 309 324 380 289 353 337 309" style="fill:#958dc4"/><polygon points="358 267 359 273 362 273 358 267" style="fill:#373842"/><polygon points="359 273 355 286 362 273 359 273" style="fill:#312533"/><polygon points="362 273 370 282 364 286 362 273" style="fill:#544f67"/><polygon points="355 286 362 273 364 286 355 286" style="fill:#605484"/><polygon points="364 286 374 303 370 282 364 286" style="fill:#545070"/><polygon points="374 303 372 313 364 286 374 303" style="fill:#6a6399"/><polygon points="337 309 355 286 364 286 337 309" style="fill:#8a82be"/><polygon points="364 286 337 309 372 313 364 286" style="fill:#8178b3"/><polygon points="337 309 361 355 324 380 337 309" style="fill:#8c85be"/><polygon points="337 309 372 313 361 355 337 309" style="fill:#7e75ae"/><polygon points="207 423 237 382 249 385 207 423" style="fill:#0f0e16"/><polygon points="225 370 237 382 249 373 225 370" style="fill:#3b3552"/><polygon points="249 385 249 373 237 382 249 385" style="fill:#08090b"/><polygon points="249 373 267 359 249 385 249 373" style="fill:#263947"/><polygon points="267 359 282 359 271 377 267 359" style="fill:#364e5d"/><polygon points="267 359 271 377 249 385 267 359" style="fill:#2b4255"/><polygon points="282 359 289 353 303 372 282 359" style="fill:#8c85c0"/><polygon points="282 359 303 372 271 377 282 359" style="fill:#3a5674"/><polygon points="271 377 279 409 303 372 271 377" style="fill:#4e7294"/><polygon points="249 385 250 412 271 377 249 385" style="fill:#304e69"/><polygon points="250 412 279 409 271 377 250 412" style="fill:#365b7a"/><polygon points="250 412 263 423 279 409 250 412" style="fill:#3e6584"/><polygon points="250 412 239 458 263 423 250 412" style="fill:#304b62"/><polygon points="263 423 279 409 287 458 263 423" style="fill:#5085ac"/><polygon points="239 458 263 423 287 458 239 458" style="fill:#3e6584"/><polygon points="279 409 305 382 303 372 279 409" style="fill:#201c3b"/><polygon points="305 382 349 399 303 372 305 382" style="fill:#181321"/><polygon points="305 382 311 440 349 399 305 382" style="fill:#aaa2d0"/><polygon points="311 440 316 508 349 399 311 440" style="fill:#c3bdde"/><polygon points="279 409 305 382 287 458 279 409" style="fill:#9a92c7"/><polygon points="305 382 311 440 287 458 305 382" style="fill:#aaa6d2"/><polygon points="207 423 249 385 250 412 207 423" style="fill:#524f7a"/><polygon points="207 423 239 458 250 412 207 423" style="fill:#827cb7"/><polygon points="207 423 203 490 239 458 207 423" style="fill:#978fc5"/><polygon points="239 458 287 458 262 504 239 458" style="fill:#2b4f65"/><polygon points="311 440 287 458 316 508 311 440" style="fill:#b1acd5"/><polygon points="239 458 232 524 262 504 239 458" style="fill:#1f4661"/><polygon points="262 504 287 533 287 458 262 504" style="fill:#528bb3"/><polygon points="215 319 213 355 207 334 215 319" style="fill:#111213"/><polygon points="213 355 210 378 207 334 213 355" style="fill:#050506"/><polygon points="207 334 162 379 210 378 207 334" style="fill:#0b0b0b"/><polygon points="207 409 162 379 210 378 207 409" style="fill:#080808"/><polygon points="131 388 171 428 207 409 131 388" style="fill:#0e1010"/><polygon points="131 388 140 509 171 428 131 388" style="fill:#131316"/><polygon points="207 409 207 423 171 428 207 409" style="fill:#090c0b"/><polygon points="203 490 207 423 171 428 203 490" style="fill:#151617"/><polygon points="171 428 203 490 173 524 171 428" style="fill:#121414"/><polygon points="140 509 173 524 171 428 140 509" style="fill:#131314"/><polygon points="207 334 162 379 165 357 207 334" style="fill:#151717"/><polygon points="165 357 131 388 162 379 165 357" style="fill:#19191d"/><polygon points="207 409 162 379 131 388 207 409" style="fill:#151618"/><polygon points="131 388 109 385 165 357 131 388" style="fill:#25282c"/><polygon points="109 385 83 452 87 396 109 385" style="fill:#2a2d32"/><polygon points="83 452 103 460 96 525 83 452" style="fill:#111011"/><polygon points="83 452 103 460 109 385 83 452" style="fill:#191b1f"/><polygon points="131 388 103 460 109 385 131 388" style="fill:#1c1f23"/><polygon points="87 396 72 419 83 452 87 396" style="fill:#27292f"/><polygon points="72 419 64 517 83 452 72 419" style="fill:#101112"/><polygon points="83 452 96 525 64 517 83 452" style="fill:#0e1011"/><polygon points="131 388 140 509 103 460 131 388" style="fill:#181a1c"/><polygon points="96 525 103 460 140 509 96 525" style="fill:#141619"/><polygon points="370 282 374 303 381 290 370 282" style="fill:#131615"/><polygon points="374 303 372 313 393 303 374 303" style="fill:#1e1f20"/><polygon points="381 290 374 303 393 303 381 290" style="fill:#181a1b"/><polygon points="361 355 379 325 372 313 361 355" style="fill:#20242b"/><polygon points="372 313 393 303 379 325 372 313" style="fill:#191c1e"/><polygon points="349 399 381 387 361 355 349 399" style="fill:#2a2934"/><polygon points="419 368 381 387 398 309 419 368" style="fill:#2b2e36"/><polygon points="410 316 398 309 419 368 410 316" style="fill:#222328"/><polygon points="393 303 398 309 379 325 393 303" style="fill:#1d2223"/><polygon points="361 355 379 325 381 387 361 355" style="fill:#22262b"/><polygon points="398 309 379 325 381 387 398 309" style="fill:#272c32"/><polygon points="324 380 349 399 303 372 324 380" style="fill:#b9b6db"/><polygon points="381 387 387 419 452 373 381 387" style="fill:#2f363d"/><polygon points="381 387 316 508 349 399 381 387" style="fill:#24262b"/><polygon points="381 387 387 419 316 508 381 387" style="fill:#262930"/><polygon points="365 548 452 373 387 419 365 548" style="fill:#2c2f39"/><polygon points="316 508 387 419 365 548 316 508" style="fill:#24262c"/><polygon points="381 387 419 368 452 373 381 387" style="fill:#1f1f25"/><polygon points="410 316 488 339 419 368 410 316" style="fill:#353743"/><polygon points="452 373 488 339 419 368 452 373" style="fill:#363842"/><polygon points="550 361 488 339 452 373 550 361" style="fill:#3d404a"/><polygon points="511 423 550 361 452 373 511 423" style="fill:#2d3037"/><polygon points="566 363 550 361 511 423 566 363" style="fill:#252b2f"/><polygon points="452 373 365 548 452 392 452 373" style="fill:#151410"/><polygon points="511 423 452 373 452 392 511 423" style="fill:#272c32"/><polygon points="566 363 604 461 511 423 566 363" style="fill:#141316"/><polygon points="511 423 492 531 452 392 511 423" style="fill:#1f1f25"/><polygon points="452 392 492 531 365 548 452 392" style="fill:#222328"/><polygon points="511 423 492 531 604 461 511 423" style="fill:#141417"/><polygon points="287 458 287 533 316 508 287 458" style="fill:#beb6da"/><polygon points="203 490 239 458 232 524 203 490" style="fill:#9f9bcc"/></svg>