<?xml version="1.0" standalone="no"?>
<!DOCTYPE svg PUBLIC "-//W3C//DTD SVG 20010904//EN"
 "http://www.w3.org/TR/2001/REC-SVG-20010904/DTD/svg10.dtd">
<svg version="1.0" xmlns="http://www.w3.org/2000/svg"
 width="792.000000pt" height="792.000000pt" viewBox="0 0 792.000000 792.000000"
 preserveAspectRatio="xMidYMid meet">
<metadata>
Created by potrace 1.11, written by Peter Selinger 2001-2013
</metadata>
<g transform="translate(0.000000,792.000000) scale(0.100000,-0.100000)"
fill="#000000" stroke="none">
<path d="M4346 5744 c-4 -49 -11 -98 -16 -110 -5 -12 -30 -30 -63 -43 l-54
-22 -43 -111 -42 -110 9 -110 9 -111 -126 7 c-69 3 -149 6 -178 6 l-52 0 15
36 c21 50 20 53 -17 48 -28 -5 -45 3 -123 59 -49 36 -91 64 -92 63 -6 -5 35
-147 48 -167 15 -22 15 -27 2 -44 -8 -11 -19 -29 -25 -40 -9 -17 -7 -16 15 4
l26 24 256 -5 c141 -3 258 -8 261 -11 3 -3 -7 -24 -22 -46 l-27 -41 37 -44
c20 -24 36 -49 36 -54 0 -5 -14 -41 -31 -79 -29 -66 -38 -76 -160 -177 -112
-94 -148 -116 -272 -176 l-142 -68 -73 -120 -72 -120 -66 -7 c-44 -5 -67 -12
-73 -24 -5 -9 -23 -67 -41 -128 -18 -62 -35 -113 -37 -113 -3 0 -28 18 -55 40
-28 22 -54 40 -58 40 -5 0 -38 -13 -75 -30 -37 -16 -68 -30 -69 -30 -1 0 -10
16 -20 35 -11 19 -23 35 -27 35 -5 0 -33 -11 -62 -24 l-54 -24 -16 32 c-9 17
-30 54 -46 83 l-31 52 88 26 c48 14 121 37 162 50 41 13 101 30 133 39 57 16
57 17 42 40 -24 36 -117 72 -252 96 -68 12 -123 25 -123 29 0 16 235 50 307
44 70 -5 72 -6 104 -49 l33 -44 65 6 c36 4 67 8 69 9 2 1 -9 16 -23 33 -35 42
-177 116 -252 132 -35 7 -63 16 -63 21 0 4 37 46 81 94 45 47 80 87 78 89 -2
2 -24 8 -49 13 -44 8 -45 9 -48 50 -3 39 -6 43 -40 53 -55 15 -60 12 -27 -15
l30 -24 -94 -1 c-85 0 -97 2 -119 23 l-24 22 8 -30 c4 -16 13 -43 21 -58 13
-26 11 -35 -22 -120 -40 -105 -38 -100 -89 -147 l-39 -35 6 65 c5 55 3 68 -11
76 -9 6 -34 21 -55 34 l-39 23 6 -79 c12 -147 37 -338 58 -449 17 -90 30 -128
72 -207 l50 -96 112 -32 c61 -18 116 -35 122 -39 5 -3 19 -41 30 -84 l20 -79
-25 -66 c-13 -37 -42 -99 -63 -137 l-39 -70 -208 -112 c-114 -61 -356 -187
-538 -278 l-330 -167 -75 -111 -76 -112 -33 -439 c-18 -241 -29 -442 -24 -446
4 -4 70 -22 145 -39 l138 -32 192 70 c106 39 198 71 204 71 6 0 74 -29 152
-65 79 -36 147 -65 152 -65 5 0 67 68 139 152 100 117 131 160 135 187 3 20
11 154 17 299 7 155 17 268 23 276 10 12 374 111 381 104 2 -2 -18 -91 -45
-198 -45 -177 -53 -223 -80 -497 -16 -166 -30 -307 -30 -313 0 -10 146 86 230
151 26 20 64 81 143 227 59 110 107 206 107 213 0 7 -46 83 -102 167 l-102
154 49 41 c28 23 113 103 190 179 78 76 145 138 150 138 6 0 86 -29 179 -65
93 -36 165 -61 160 -56 -5 4 -76 48 -159 96 -82 48 -205 123 -273 167 l-122
81 35 31 c243 218 475 444 545 532 79 98 86 104 121 104 36 0 38 -2 82 -81
l44 -82 -17 -81 c-10 -45 -36 -146 -58 -226 -22 -80 -67 -246 -101 -370 -34
-124 -126 -440 -205 -703 l-143 -478 146 -121 c80 -67 180 -150 222 -185 l77
-63 580 79 580 78 505 319 505 318 -17 46 c-10 25 -87 226 -171 447 l-154 402
-75 7 c-59 5 -141 30 -366 109 -159 57 -443 147 -630 200 -392 112 -411 121
-530 255 -40 45 -104 106 -141 134 -38 28 -87 76 -110 106 l-42 55 13 130 c11
111 19 145 54 230 27 67 41 116 41 148 0 26 -3 47 -6 47 -3 0 -22 -13 -42 -29
-25 -20 -54 -31 -89 -36 -29 -4 -53 -4 -53 -1 0 15 64 132 78 142 9 6 42 26
74 43 l58 32 -7 -31 -6 -32 30 16 c32 16 43 33 43 69 0 12 14 38 31 57 17 19
29 28 26 19 -3 -9 -9 -38 -12 -65 -4 -27 -14 -61 -22 -76 -7 -16 -9 -28 -4
-28 15 0 49 48 61 86 8 22 17 33 25 30 9 -3 21 24 39 90 30 109 30 110 12 94
-12 -9 -31 -8 -92 5 -48 11 -96 15 -130 12 l-54 -6 33 27 c17 15 35 31 39 36
4 6 35 12 70 14 61 4 65 3 108 -33 37 -31 45 -34 52 -21 19 34 38 258 38 450
l0 200 -27 -25 c-16 -13 -38 -33 -50 -42 l-21 -18 -23 125 c-13 69 -26 123
-30 118 -3 -4 -17 -49 -30 -99 -13 -51 -26 -89 -30 -85 -4 4 -28 68 -54 142
-26 74 -51 141 -55 149 -5 9 -11 -22 -14 -75z m-66 -1132 l-21 -37 6 43 c3 23
8 61 12 85 l7 42 8 -48 c7 -39 5 -53 -12 -85z m-520 -1648 c0 -8 -192 -305
-196 -302 -4 5 -64 246 -64 261 0 10 30 18 108 29 124 18 152 20 152 12z"/>
<path d="M3285 5422 c-71 -13 -132 -26 -134 -28 -2 -2 4 -21 13 -44 9 -22 16
-43 16 -45 0 -3 -17 -5 -39 -5 -37 0 -40 -3 -76 -62 l-37 -63 16 -70 c9 -38
20 -75 24 -81 9 -14 124 -46 133 -36 4 4 18 34 32 67 l25 60 59 7 c32 3 60 4
62 2 8 -7 41 39 41 57 0 10 -10 25 -22 33 l-21 15 26 12 c40 18 33 26 -28 34
-30 3 -57 10 -60 14 -2 5 44 21 103 36 141 37 141 37 95 67 -87 57 -85 57
-228 30z m31 -269 c-10 -10 -19 5 -10 18 6 11 8 11 12 0 2 -7 1 -15 -2 -18z"/>
<path d="M2700 5416 c-53 -12 -55 -13 -62 -52 -4 -21 -2 -76 3 -121 8 -57 8
-103 0 -149 -6 -38 -9 -70 -7 -72 2 -2 36 13 76 33 61 31 78 35 115 30 42 -7
43 -7 50 27 4 18 25 63 46 99 37 62 40 70 33 118 -6 46 -4 55 16 76 l23 25
-119 -1 c-65 -1 -144 -7 -174 -13z m160 -233 c0 -15 -38 -32 -74 -33 l-38 0
16 25 c9 13 16 31 16 40 0 13 6 12 40 -5 22 -11 40 -23 40 -27z m-176 -8 c3
-8 1 -15 -4 -15 -6 0 -10 7 -10 15 0 8 2 15 4 15 2 0 6 -7 10 -15z"/>
<path d="M3010 5280 c-34 -7 -34 -7 -5 -8 17 0 39 3 50 8 24 10 4 10 -45 0z"/>
<path d="M3496 5155 c16 -25 34 -33 34 -17 0 10 -33 42 -44 42 -3 0 1 -11 10
-25z"/>
</g>
</svg>
