<svg version="1.1" xmlns="http://www.w3.org/2000/svg" xmlns:xlink="http://www.w3.org/1999/xlink" x="0px" y="0px" width="600px" height="600px" viewBox="0 0 600 600" enable-background="new 0 0 600 600" xml:space="preserve">
<g>
	<path d="M288.386,230.574c-35.382-62.896-73.541-115.776-79.17-123.497c-59.741,28.178-104.397,83.251-118.244,149.514
		C100.523,256.716,188.5,257.099,288.386,230.574z"/>
	<path d="M314.93,302.192c2.782-0.901,5.589-1.746,8.414-2.542c-5.36-12.131-11.198-24.275-17.312-36.239
		c-106.64,31.915-210.119,30.582-219.461,30.39c-0.066,2.167-0.11,4.341-0.11,6.524c0,54.844,20.791,104.922,54.896,142.778
		C146.194,434.825,204.799,337.789,314.93,302.192z"/>
	<path d="M360.223,280.415c1.57,3.691,3.103,7.364,4.599,11.021c71.054-8.935,141.651,5.385,148.692,6.874
		c-0.47-50.402-18.48-96.682-48.222-133.02c-4.5,6.089-40.284,51.961-119.236,84.196
		C351.022,259.656,355.787,270.002,360.223,280.415z"/>
	<path d="M441.553,140.596C403.845,107.14,354.259,86.788,300,86.788c-17.229,0-33.983,2.065-50.041,5.935
		c5.902,7.904,44.687,60.718,79.678,125.009C405.569,189.271,437.714,146.065,441.553,140.596z"/>
	<path d="M300,0C134.314,0,0,134.314,0,300s134.314,300,300,300s300-134.314,300-300S465.686,0,300,0z M300,550
		C162.149,550,50,437.851,50,300.001C50,162.149,162.149,50,300,50s250,112.149,250,250.001C550,437.851,437.851,550,300,550z"/>
	<path d="M377.827,325.094c27.93,76.75,39.297,139.261,41.484,152.251c47.906-32.393,82.009-83.708,91.525-143.122
		C503.532,331.916,444.743,314.383,377.827,325.094z"/>
	<path d="M336.45,335.437c-120.443,41.97-163.679,125.496-167.521,133.352c36.206,28.232,81.707,45.078,131.071,45.078
		c29.58,0,57.773-6.051,83.413-16.972c-3.177-18.734-15.574-84.028-45.555-161.934C337.39,335.121,336.919,335.272,336.45,335.437z"
		/>
</g>
</svg>
